<svg width="190" height="28" viewBox="0 0 190 28" fill="none" xmlns="http://www.w3.org/2000/svg">
<path d="M13.9218 1.84391L17.1171 9.52652L17.2121 9.75482L17.4585 9.77458L25.7526 10.4395L19.4334 15.8525L19.2456 16.0134L19.303 16.2539L21.2336 24.3475L14.1328 20.0103L13.9218 19.8814L13.7107 20.0103L6.60991 24.3475L8.54051 16.2539L8.59788 16.0134L8.4101 15.8525L2.09094 10.4395L10.385 9.77458L10.6314 9.75482L10.7264 9.52652L13.9218 1.84391Z" fill="#F1C644" stroke="#F1C644" stroke-width="0.809626"/>
<path d="M54.403 1.84391L57.5983 9.52652L57.6933 9.75482L57.9397 9.77458L66.2338 10.4395L59.9146 15.8525L59.7268 16.0134L59.7842 16.2539L61.7148 24.3475L54.614 20.0103L54.403 19.8814L54.1919 20.0103L47.0911 24.3475L49.0217 16.2539L49.0791 16.0134L48.8913 15.8525L42.5721 10.4395L50.8662 9.77458L51.1126 9.75482L51.2076 9.52652L54.403 1.84391Z" fill="#F1C644" stroke="#F1C644" stroke-width="0.809626"/>
<path d="M94.8844 1.84391L98.0798 9.52652L98.1747 9.75482L98.4212 9.77458L106.715 10.4395L100.396 15.8525L100.208 16.0134L100.266 16.2539L102.196 24.3475L95.0954 20.0103L94.8844 19.8814L94.6734 20.0103L87.5726 24.3475L89.5032 16.2539L89.5605 16.0134L89.3727 15.8525L83.0536 10.4395L91.3476 9.77458L91.5941 9.75482L91.689 9.52652L94.8844 1.84391Z" fill="#F1C644" stroke="#F1C644" stroke-width="0.809626"/>
<path d="M135.366 1.84391L138.561 9.52652L138.656 9.75482L138.902 9.77458L147.196 10.4395L140.877 15.8525L140.689 16.0134L140.747 16.2539L142.677 24.3475L135.577 20.0103L135.366 19.8814L135.155 20.0103L128.054 24.3475L129.984 16.2539L130.042 16.0134L129.854 15.8525L123.535 10.4395L131.829 9.77458L132.075 9.75482L132.17 9.52652L135.366 1.84391Z" fill="#F1C644" stroke="#F1C644" stroke-width="0.809626"/>
<path d="M175.847 1.84391L179.042 9.52652L179.137 9.75482L179.384 9.77458L187.678 10.4395L181.359 15.8525L181.171 16.0134L181.228 16.2539L183.159 24.3475L176.058 20.0103L175.847 19.8814L175.636 20.0103L168.535 24.3475L170.466 16.2539L170.523 16.0134L170.335 15.8525L164.016 10.4395L172.31 9.77458L172.557 9.75482L172.652 9.52652L175.847 1.84391Z" stroke="#F1C644" stroke-width="0.809626"/>
</svg>
