<svg width="24" height="24" viewBox="0 0 24 24" fill="none" xmlns="http://www.w3.org/2000/svg">
<path d="M12.161 10.8687C12.061 10.8587 11.941 10.8587 11.831 10.8687C9.45073 10.7887 7.56055 8.83847 7.56055 6.43824C7.56055 3.988 9.54074 1.9978 12.001 1.9978C14.4512 1.9978 16.4414 3.988 16.4414 6.43824C16.4314 8.83847 14.5412 10.7887 12.161 10.8687Z" stroke="#C7C7C7" stroke-width="2.125" stroke-linecap="round" stroke-linejoin="round"/>
<path d="M7.15893 14.5573C4.73869 16.1775 4.73869 18.8177 7.15893 20.4279C9.9092 22.2681 14.4196 22.2681 17.1699 20.4279C19.5902 18.8077 19.5902 16.1675 17.1699 14.5573C14.4296 12.7271 9.9192 12.7271 7.15893 14.5573Z" stroke="#C7C7C7" stroke-width="2.125" stroke-linecap="round" stroke-linejoin="round"/>
</svg>
