<svg xmlns="http://www.w3.org/2000/svg" width="20" height="21" viewBox="0 0 20 21" fill="none">
<path d="M12.0253 16.186C11.867 16.186 11.7086 16.1277 11.5836 16.0027C11.3419 15.761 11.3419 15.3609 11.5836 15.1192L16.2007 10.5021L11.5836 5.885C11.3419 5.64331 11.3419 5.24327 11.5836 5.00158C11.8253 4.75989 12.2253 4.75989 12.467 5.00158L17.5259 10.0604C17.7676 10.3021 17.7676 10.7021 17.5259 10.9438L12.467 16.0027C12.342 16.1277 12.1837 16.186 12.0253 16.186Z" fill="#FFF963"/>
<path d="M16.9444 11.1251H2.91803C2.57633 11.1251 2.29297 10.8418 2.29297 10.5001C2.29297 10.1584 2.57633 9.875 2.91803 9.875H16.9444C17.2861 9.875 17.5695 10.1584 17.5695 10.5001C17.5695 10.8418 17.2861 11.1251 16.9444 11.1251Z" fill="#FFF963"/>
</svg>