<svg width="24" height="25" viewBox="0 0 24 25" fill="none" xmlns="http://www.w3.org/2000/svg">
<path d="M20.1877 19.0156L20.1856 19.0159L14.1182 21.1485L13.9587 20.7645C13.9585 20.7646 13.9582 20.7647 13.958 20.7648C13.5895 20.9173 13.1638 20.6399 13.1638 20.2184V6.30701C13.1638 6.09687 13.2838 5.89316 13.4866 5.78225C15.2683 4.81857 17.9716 3.96097 19.7866 3.80251H19.8287C20.7992 3.80251 21.5832 4.58645 21.5832 5.55693V17.4481C21.5832 18.2064 20.9514 18.9212 20.1877 19.0156Z" fill="#FFF963" stroke="#FFF963" stroke-width="0.831579"/>
<path d="M3.80264 19.0159L3.80048 19.0156C3.0368 18.9212 2.40505 18.2064 2.40505 17.4481V5.55693C2.40505 4.58645 3.18899 3.80251 4.15947 3.80251H4.21159C6.02666 3.96097 8.72996 4.81857 10.5116 5.78225C10.7097 5.89055 10.8244 6.08159 10.8244 6.30701V20.2184C10.8244 20.64 10.3986 20.9173 10.0301 20.7647C8.14598 19.9747 5.80009 19.2823 4.11474 19.0562L4.11267 19.0559L3.80264 19.0159ZM7.24977 8.03143H4.99955C4.35988 8.03143 3.83369 8.55761 3.83369 9.19729C3.83369 9.85057 4.3635 10.3632 4.99955 10.3632H7.24977C7.88583 10.3632 8.41564 9.85057 8.41564 9.19729C8.41564 8.55761 7.88945 8.03143 7.24977 8.03143ZM4.99955 13.3634H7.99985C8.6359 13.3634 9.16571 12.8509 9.16571 12.1976C9.16571 11.5579 8.63952 11.0317 7.99985 11.0317H4.99955C4.35988 11.0317 3.83369 11.5579 3.83369 12.1976C3.83369 12.8509 4.3635 13.3634 4.99955 13.3634Z" fill="#FFF963" stroke="#FFF963" stroke-width="0.831579"/>
</svg>
