<svg width="24" height="25" viewBox="0 0 24 25" fill="none" xmlns="http://www.w3.org/2000/svg">
<path d="M17.8727 22.5778C17.5627 22.5778 17.2527 22.4978 16.9727 22.3278L12.9625 19.9477C12.5425 19.9377 12.1224 19.9077 11.7224 19.8477C11.4524 19.8077 11.2224 19.6276 11.1224 19.3676C11.0224 19.1076 11.0724 18.8276 11.2524 18.6176C11.9124 17.8475 12.2525 16.9275 12.2525 15.9475C12.2525 13.5273 10.1223 11.5572 7.50222 11.5572C6.52217 11.5572 5.58212 11.8273 4.79208 12.3473C4.57207 12.4873 4.30206 12.5073 4.06205 12.3973C3.83204 12.2873 3.66204 12.0673 3.63204 11.8072C3.60204 11.5272 3.58203 11.2472 3.58203 10.9572C3.58203 5.99698 7.88224 1.9668 13.1625 1.9668C18.4428 1.9668 22.743 5.99698 22.743 10.9572C22.743 13.6774 21.4829 16.1775 19.2628 17.8876L19.6028 20.6077C19.6828 21.2878 19.3828 21.9278 18.8128 22.2978C18.5328 22.4778 18.2027 22.5778 17.8727 22.5778ZM13.1525 18.4376C13.2925 18.4276 13.4325 18.4676 13.5525 18.5476L17.7427 21.0377C17.8527 21.1077 17.9427 21.0777 18.0027 21.0377C18.0527 21.0077 18.1327 20.9277 18.1127 20.7877L17.7227 17.6275C17.6927 17.3475 17.8127 17.0775 18.0327 16.9175C20.0728 15.4875 21.2429 13.3073 21.2429 10.9372C21.2429 6.807 17.6227 3.44685 13.1625 3.44685C8.87229 3.44685 5.35211 6.56704 5.0921 10.4872C5.84214 10.1972 6.65219 10.0372 7.49223 10.0372C10.9424 10.0372 13.7425 12.6773 13.7425 15.9274C13.7525 16.8075 13.5425 17.6575 13.1525 18.4376Z" fill="#A3A3A3"/>
<path d="M4.58205 23.4582C4.32203 23.4582 4.072 23.3882 3.84197 23.2382C3.39193 22.9481 3.15192 22.4481 3.21192 21.918L3.41194 20.3778C2.06181 19.2777 1.26172 17.6476 1.26172 15.9374C1.26172 13.9872 2.28183 12.1671 3.992 11.0769C5.0221 10.4069 6.24221 10.0469 7.51233 10.0469C10.9627 10.0469 13.7629 12.6871 13.7629 15.9374C13.7629 17.2575 13.2829 18.5577 12.4028 19.5878C11.2727 20.9579 9.58254 21.758 7.72236 21.818L5.28212 23.2681C5.0621 23.3982 4.82208 23.4582 4.58205 23.4582ZM7.50234 11.547C6.52224 11.547 5.58214 11.817 4.79206 12.3371C3.51194 13.1572 2.75187 14.4973 2.75187 15.9374C2.75187 17.3275 3.43194 18.5977 4.63206 19.4178C4.86208 19.5778 4.98209 19.8478 4.95208 20.1278L4.73206 21.838L7.12229 20.4179C7.24231 20.3479 7.37232 20.3078 7.50234 20.3078C8.97248 20.3078 10.3626 19.6778 11.2427 18.6077C11.9028 17.8276 12.2528 16.9075 12.2528 15.9274C12.2528 13.5172 10.1226 11.547 7.50234 11.547Z" fill="#A3A3A3"/>
</svg>
