
<svg width="24" height="25" viewBox="0 0 24 25" fill="none" xmlns="http://www.w3.org/2000/svg">
<path d="M18.0006 8.61746C17.9706 8.61746 17.9506 8.61746 17.9206 8.61746H17.8706C15.9805 8.55745 14.5703 7.0973 14.5703 5.29713C14.5703 3.45694 16.0705 1.9668 17.9006 1.9668C19.7308 1.9668 21.231 3.46695 21.231 5.29713C21.221 7.1073 19.8108 8.56745 18.0106 8.62745C18.0106 8.61745 18.0107 8.61746 18.0006 8.61746ZM17.9006 3.45695C16.8905 3.45695 16.0705 4.27703 16.0705 5.28713C16.0705 6.27723 16.8405 7.07731 17.8306 7.11731C17.8406 7.10731 17.9206 7.10731 18.0106 7.11731C18.9807 7.06731 19.7308 6.26723 19.7408 5.28713C19.7408 4.27703 18.9207 3.45695 17.9006 3.45695Z" fill="#A3A3A3"/>
<path d="M18.0087 15.9864C17.6187 15.9864 17.2286 15.9563 16.8386 15.8863C16.4286 15.8163 16.1585 15.4263 16.2285 15.0163C16.2985 14.6062 16.6886 14.3362 17.0986 14.4062C18.3287 14.6162 19.6289 14.3862 20.499 13.8062C20.969 13.4961 21.219 13.1061 21.219 12.716C21.219 12.326 20.959 11.946 20.499 11.6359C19.6289 11.0559 18.3087 10.8258 17.0686 11.0459C16.6586 11.1259 16.2685 10.8458 16.1985 10.4358C16.1285 10.0258 16.3986 9.63573 16.8086 9.56573C18.4388 9.2757 20.1289 9.58572 21.329 10.3858C22.2091 10.9759 22.7192 11.8159 22.7192 12.716C22.7192 13.6061 22.2191 14.4562 21.329 15.0563C20.419 15.6563 19.2388 15.9864 18.0087 15.9864Z" fill="#A3A3A3"/>
<path d="M5.97079 8.61769C5.96079 8.61769 5.95079 8.61769 5.95079 8.61769C4.15061 8.55768 2.74047 7.09753 2.73047 5.29736C2.73047 3.45717 4.23062 1.95703 6.0608 1.95703C7.89098 1.95703 9.39112 3.45718 9.39112 5.28736C9.39112 7.09754 7.98099 8.55768 6.18081 8.61769L5.97079 7.86762L6.0408 8.61769C6.02079 8.61769 5.99079 8.61769 5.97079 8.61769ZM6.0708 7.11754C6.1308 7.11754 6.18081 7.11754 6.24082 7.12754C7.1309 7.08753 7.91098 6.28745 7.91098 5.29736C7.91098 4.28726 7.0909 3.46717 6.0808 3.46717C5.0707 3.46717 4.25062 4.28726 4.25062 5.29736C4.25062 6.27745 5.01069 7.06753 5.98079 7.12754C5.99079 7.11754 6.03079 7.11754 6.0708 7.11754Z" fill="#A3A3A3"/>
<path d="M5.96046 15.9864C4.73034 15.9864 3.55023 15.6563 2.64014 15.0563C1.76005 14.4662 1.25 13.6161 1.25 12.716C1.25 11.8259 1.76005 10.9759 2.64014 10.3858C3.84025 9.58572 5.53042 9.2757 7.16058 9.56573C7.57062 9.63573 7.84065 10.0258 7.77064 10.4358C7.70063 10.8458 7.3106 11.1259 6.90056 11.0459C5.66043 10.8258 4.35031 11.0559 3.47022 11.6359C3.00017 11.946 2.75015 12.326 2.75015 12.716C2.75015 13.1061 3.01017 13.4961 3.47022 13.8061C4.3403 14.3862 5.64043 14.6162 6.87055 14.4062C7.28059 14.3362 7.67063 14.6162 7.74064 15.0163C7.81065 15.4263 7.54062 15.8163 7.13058 15.8863C6.74054 15.9563 6.3505 15.9864 5.96046 15.9864Z" fill="#A3A3A3"/>
<path d="M12.0006 16.0882C11.9706 16.0882 11.9506 16.0882 11.9206 16.0882H11.8706C9.98045 16.0282 8.57031 14.568 8.57031 12.7678C8.57031 10.9276 10.0705 9.4375 11.9006 9.4375C13.7308 9.4375 15.231 10.9376 15.231 12.7678C15.221 14.578 13.8108 16.0382 12.0106 16.0982C12.0106 16.0882 12.0107 16.0882 12.0006 16.0882ZM11.9006 10.9277C10.8905 10.9277 10.0705 11.7477 10.0705 12.7578C10.0705 13.7479 10.8405 14.548 11.8306 14.588C11.8406 14.578 11.9206 14.578 12.0106 14.588C12.9807 14.538 13.7308 13.7379 13.7408 12.7578C13.7408 11.7577 12.9207 10.9277 11.9006 10.9277Z" fill="#A3A3A3"/>
<path d="M12.0017 23.4684C10.8016 23.4684 9.60148 23.1584 8.67139 22.5283C7.7913 21.9382 7.28125 21.0982 7.28125 20.1981C7.28125 19.308 7.7813 18.4479 8.67139 17.8578C10.5416 16.6177 13.4719 16.6177 15.332 17.8578C16.2121 18.4479 16.7222 19.288 16.7222 20.1881C16.7222 21.0781 16.2221 21.9382 15.332 22.5283C14.402 23.1484 13.2018 23.4684 12.0017 23.4684ZM9.50147 19.118C9.03142 19.428 8.7814 19.818 8.7814 20.2081C8.7814 20.5981 9.04142 20.9781 9.50147 21.2882C10.8516 22.1983 13.1418 22.1983 14.492 21.2882C14.962 20.9781 15.212 20.5881 15.212 20.1981C15.212 19.808 14.952 19.428 14.492 19.118C13.1518 18.2079 10.8616 18.2179 9.50147 19.118Z" fill="#A3A3A3"/>
</svg>
