<svg width="16" height="17" viewBox="0 0 16 17" fill="none" xmlns="http://www.w3.org/2000/svg">
<path d="M8 1.65234C6.71442 1.65234 5.45772 2.03356 4.3888 2.74779C3.31988 3.46202 2.48676 4.47718 1.99479 5.6649C1.50282 6.85262 1.37409 8.15955 1.6249 9.42043C1.8757 10.6813 2.49477 11.8395 3.40381 12.7485C4.31285 13.6576 5.47104 14.2766 6.73192 14.5274C7.99279 14.7783 9.29973 14.6495 10.4874 14.1576C11.6752 13.6656 12.6903 12.8325 13.4046 11.7635C14.1188 10.6946 14.5 9.43792 14.5 8.15234C14.4982 6.429 13.8128 4.77675 12.5942 3.55816C11.3756 2.33957 9.72335 1.65416 8 1.65234ZM8 13.6523C6.91221 13.6523 5.84884 13.3298 4.94437 12.7254C4.0399 12.1211 3.33495 11.2621 2.91867 10.2571C2.50238 9.25211 2.39347 8.14624 2.60568 7.07935C2.8179 6.01245 3.34173 5.03245 4.11092 4.26326C4.8801 3.49407 5.86011 2.97024 6.92701 2.75802C7.9939 2.54581 9.09977 2.65472 10.1048 3.07101C11.1098 3.48729 11.9687 4.19224 12.5731 5.09671C13.1774 6.00118 13.5 7.06455 13.5 8.15234C13.4983 9.61053 12.9184 11.0085 11.8873 12.0396C10.8562 13.0707 9.45819 13.6507 8 13.6523ZM9 11.1523C9 11.285 8.94732 11.4121 8.85356 11.5059C8.75979 11.5997 8.63261 11.6523 8.5 11.6523C8.23479 11.6523 7.98043 11.547 7.7929 11.3595C7.60536 11.1719 7.5 10.9176 7.5 10.6523V8.15234C7.36739 8.15234 7.24022 8.09967 7.14645 8.0059C7.05268 7.91213 7 7.78495 7 7.65234C7 7.51974 7.05268 7.39256 7.14645 7.29879C7.24022 7.20502 7.36739 7.15234 7.5 7.15234C7.76522 7.15234 8.01957 7.2577 8.20711 7.44524C8.39465 7.63277 8.5 7.88713 8.5 8.15234V10.6523C8.63261 10.6523 8.75979 10.705 8.85356 10.7988C8.94732 10.8926 9 11.0197 9 11.1523ZM7 5.40234C7 5.25401 7.04399 5.109 7.1264 4.98567C7.20881 4.86233 7.32595 4.7662 7.46299 4.70943C7.60003 4.65267 7.75083 4.63782 7.89632 4.66675C8.04181 4.69569 8.17544 4.76712 8.28033 4.87201C8.38522 4.9769 8.45665 5.11054 8.48559 5.25603C8.51453 5.40151 8.49968 5.55231 8.44291 5.68936C8.38615 5.8264 8.29002 5.94353 8.16668 6.02595C8.04334 6.10836 7.89834 6.15234 7.75 6.15234C7.55109 6.15234 7.36032 6.07333 7.21967 5.93267C7.07902 5.79202 7 5.60126 7 5.40234Z" fill="#E3E3E3"/>
</svg>
