<svg width="48" height="48" viewBox="0 0 48 48" fill="none" xmlns="http://www.w3.org/2000/svg">
<circle cx="24" cy="24" r="24" fill="#FFB9F8"/>
<path d="M17.02 30.26C15.5133 30.26 14.3533 29.9133 13.54 29.22C12.74 28.5133 12.34 27.4733 12.34 26.1V24.68H14.94V25.92C14.94 27.2533 15.5533 27.92 16.78 27.92C17.9267 27.92 18.5 27.2667 18.5 25.96V15.7H21.4V25.98C21.4 27.26 21.0267 28.2933 20.28 29.08C19.5333 29.8667 18.4467 30.26 17.02 30.26ZM23.5625 30V15.7H26.4625V21.4L31.9625 15.7H35.5625L29.9625 21.42L35.9225 30H32.5225L27.9225 23.32L26.4625 24.8V30H23.5625Z" fill="#191919"/>
</svg>
