<svg width="24" height="25" viewBox="0 0 24 25" fill="none" xmlns="http://www.w3.org/2000/svg">
<path d="M13.67 3.85908L13.6708 3.85976L20.6004 9.39939C20.6006 9.39955 20.6008 9.39972 20.601 9.39989C20.9145 9.65254 21.1944 10.0666 21.3765 10.5439C21.5586 11.0211 21.6262 11.5179 21.561 11.9181C21.561 11.9183 21.5609 11.9186 21.5609 11.9188L20.2312 19.8768C20.2312 19.877 20.2312 19.8771 20.2312 19.8773C20.0248 21.0881 18.8274 22.1011 17.6008 22.1011H6.39972C5.16273 22.1011 3.97588 21.0977 3.76946 19.8777C3.76944 19.8776 3.76942 19.8774 3.7694 19.8773L2.4394 11.9173L2.4394 11.9173L2.43896 11.9148C2.36978 11.5159 2.43476 11.0203 2.61654 10.5439C2.7983 10.0675 3.08022 9.65371 3.39813 9.40103L3.39931 9.40007L10.33 3.84953L10.3302 3.84937C11.2375 3.12182 12.7512 3.12061 13.67 3.85908ZM9.08424 13.706C9.08424 15.3158 10.3905 16.622 12.0003 16.622C13.61 16.622 14.9163 15.3158 14.9163 13.706C14.9163 12.0962 13.61 10.79 12.0003 10.79C10.3905 10.79 9.08424 12.0962 9.08424 13.706Z" fill="#FFF963" stroke="#FFF963" stroke-width="0.831579"/>
</svg>
