<svg width="34" height="34" viewBox="0 0 34 34" fill="none" xmlns="http://www.w3.org/2000/svg">
<circle cx="17" cy="17" r="17" fill="#FFF963"/>
<g clip-path="url(#clip0_1413_17545)">
<path d="M17.8229 9C18.7229 9.0024 19.1797 9.0072 19.5741 9.0184L19.7293 9.024C19.9085 9.0304 20.0853 9.0384 20.2989 9.048C21.1501 9.088 21.7309 9.2224 22.2405 9.42C22.7685 9.6232 23.2133 9.8984 23.6581 10.3424C24.065 10.7422 24.3798 11.226 24.5805 11.76C24.7781 12.2696 24.9125 12.8504 24.9525 13.7024C24.9621 13.9152 24.9701 14.092 24.9765 14.272L24.9813 14.4272C24.9933 14.8208 24.9981 15.2776 24.9997 16.1776L25.0005 16.7744V17.8224C25.0024 18.4059 24.9963 18.9894 24.9821 19.5728L24.9773 19.728C24.9709 19.908 24.9629 20.0848 24.9533 20.2976C24.9133 21.1496 24.7773 21.7296 24.5805 22.24C24.3798 22.774 24.065 23.2578 23.6581 23.6576C23.2583 24.0646 22.7745 24.3793 22.2405 24.58C21.7309 24.7776 21.1501 24.912 20.2989 24.952L19.7293 24.976L19.5741 24.9808C19.1797 24.992 18.7229 24.9976 17.8229 24.9992L17.2261 25H16.1789C15.5951 25.0021 15.0113 24.9959 14.4277 24.9816L14.2725 24.9768C14.0825 24.9696 13.8927 24.9613 13.7029 24.952C12.8517 24.912 12.2709 24.7776 11.7605 24.58C11.2267 24.3792 10.7432 24.0645 10.3437 23.6576C9.93641 23.2579 9.62134 22.7741 9.42046 22.24C9.22286 21.7304 9.08845 21.1496 9.04845 20.2976L9.02446 19.728L9.02046 19.5728C9.00571 18.9895 8.99904 18.4059 9.00046 17.8224V16.1776C8.99824 15.5941 9.00411 15.0106 9.01806 14.4272L9.02366 14.272C9.03006 14.092 9.03806 13.9152 9.04766 13.7024C9.08766 12.8504 9.22205 12.2704 9.41965 11.76C9.62101 11.2258 9.93663 10.7419 10.3445 10.3424C10.7438 9.93564 11.227 9.62086 11.7605 9.42C12.2709 9.2224 12.8509 9.088 13.7029 9.048C13.9157 9.0384 14.0933 9.0304 14.2725 9.024L14.4277 9.0192C15.011 9.00499 15.5945 8.99885 16.1781 9.0008L17.8229 9ZM17.0005 13C15.9396 13 14.9222 13.4214 14.172 14.1716C13.4219 14.9217 13.0005 15.9391 13.0005 17C13.0005 18.0609 13.4219 19.0783 14.172 19.8284C14.9222 20.5786 15.9396 21 17.0005 21C18.0613 21 19.0787 20.5786 19.8289 19.8284C20.579 19.0783 21.0005 18.0609 21.0005 17C21.0005 15.9391 20.579 14.9217 19.8289 14.1716C19.0787 13.4214 18.0613 13 17.0005 13ZM17.0005 14.6C17.3156 14.5999 17.6277 14.662 17.9189 14.7825C18.2101 14.9031 18.4747 15.0798 18.6976 15.3027C18.9205 15.5255 19.0974 15.79 19.218 16.0812C19.3387 16.3724 19.4008 16.6844 19.4009 16.9996C19.4009 17.3148 19.3389 17.6269 19.2183 17.9181C19.0978 18.2093 18.921 18.4739 18.6982 18.6968C18.4754 18.9197 18.2108 19.0965 17.9197 19.2172C17.6285 19.3378 17.3164 19.3999 17.0013 19.4C16.3647 19.4 15.7543 19.1471 15.3042 18.6971C14.8541 18.247 14.6013 17.6365 14.6013 17C14.6013 16.3635 14.8541 15.753 15.3042 15.3029C15.7543 14.8529 16.3647 14.6 17.0013 14.6M21.2013 11.8C20.936 11.8 20.6817 11.9054 20.4941 12.0929C20.3066 12.2804 20.2013 12.5348 20.2013 12.8C20.2013 13.0652 20.3066 13.3196 20.4941 13.5071C20.6817 13.6946 20.936 13.8 21.2013 13.8C21.4665 13.8 21.7208 13.6946 21.9084 13.5071C22.0959 13.3196 22.2013 13.0652 22.2013 12.8C22.2013 12.5348 22.0959 12.2804 21.9084 12.0929C21.7208 11.9054 21.4665 11.8 21.2013 11.8Z" fill="#191919"/>
</g>
<defs>
<clipPath id="clip0_1413_17545">
<rect width="16" height="16" fill="white" transform="translate(9 9)"/>
</clipPath>
</defs>
</svg>
