<svg width="793" height="990" viewBox="0 0 793 990" fill="none" xmlns="http://www.w3.org/2000/svg">
<g opacity="0.2" filter="url(#filter0_f_3557_490)">
<path d="M366.767 608.265C371.508 620.587 373.879 626.748 373.406 633.528C373.093 638.012 371.095 644.065 368.677 647.855C365.022 653.584 360.671 656.348 351.968 661.875C332.34 674.341 316.018 677.026 282.396 685.191C234.992 696.703 185.48 696.347 138.246 684.153C91.0119 671.96 47.5143 648.305 11.6058 615.285C-24.3027 582.266 -51.5136 540.9 -67.6167 494.852C-83.7197 448.804 -88.2178 399.495 -80.7126 351.294C-73.2074 303.092 -53.9305 257.486 -24.5895 218.514C4.75161 179.541 43.2512 148.407 87.499 127.868C120.306 112.64 147.813 104.985 179.696 103.163C190.54 102.543 195.962 102.234 201.914 104.416C206.758 106.192 212.145 110.086 215.352 114.128C219.292 119.094 220.936 125.223 224.224 137.48C230.295 160.11 233.331 171.426 231.631 178.843C229.881 186.48 227.342 190.596 221.304 195.589C215.439 200.438 201.816 203.249 174.569 208.871C158.385 212.21 143.049 216.752 131.291 222.21C102.558 235.548 77.5572 255.765 58.5041 281.072C39.4509 306.38 26.933 335.995 22.0594 367.296C17.1857 398.597 20.1067 430.616 30.5635 460.518C41.0204 490.42 58.6903 517.282 82.0081 538.724C105.326 560.166 133.572 575.526 164.244 583.444C194.916 591.363 227.068 591.594 257.851 584.119C265.011 582.38 272.046 580.236 278.924 577.705C309.331 566.514 324.535 560.919 332.198 562.022C339.355 563.052 342.242 564.36 347.735 569.061C353.617 574.095 358 585.485 366.767 608.265Z" fill="#FFF963"/>
<path d="M371.305 849.297C375.191 864.648 377.135 872.324 382.557 878.094C385.6 881.332 390.52 884.535 394.712 886.008C402.182 888.633 408.927 887.485 422.416 885.191C454.217 879.781 485.015 869.204 513.564 853.796C554.245 831.838 589.232 800.676 615.732 762.797C642.232 724.917 659.512 681.368 666.193 635.625C672.874 589.881 668.771 543.209 654.212 499.333C639.653 455.456 615.041 415.59 582.339 382.914C549.637 350.239 509.75 325.659 465.862 311.135C421.974 296.612 375.299 292.547 329.56 299.265C298.108 303.885 272.387 305.721 247.077 315.045C236.482 318.949 231.184 320.9 225.89 327.419C223.248 330.672 220.4 336.77 219.602 340.884C218.002 349.128 220.544 356.22 225.626 370.405C234.24 394.445 238.547 406.466 244.456 411.677C248.902 415.599 251.064 416.757 256.792 418.289C264.403 420.324 279.866 416.497 310.794 408.841C322.735 405.885 334.434 403.676 344.676 402.172C374.377 397.809 404.686 400.448 433.186 409.88C461.686 419.311 487.587 435.272 508.822 456.491C530.058 477.709 546.04 503.597 555.495 532.089C564.949 560.581 567.613 590.889 563.274 620.593C558.936 650.297 547.715 678.577 530.507 703.175C513.298 727.772 490.579 748.008 464.162 762.266C452.636 768.487 436.211 773.86 418.864 778.015C392.257 784.387 378.954 787.573 372.917 793.46C368.695 797.577 366.641 800.973 364.956 806.624C362.546 814.705 365.466 826.236 371.305 849.297Z" fill="#FFF963"/>
</g>
<defs>
<filter id="filter0_f_3557_490" x="-89.5614" y="97.3905" width="764.186" height="795.442" filterUnits="userSpaceOnUse" color-interpolation-filters="sRGB">
<feFlood flood-opacity="0" result="BackgroundImageFix"/>
<feBlend mode="normal" in="SourceGraphic" in2="BackgroundImageFix" result="shape"/>
<feGaussianBlur stdDeviation="2.65853" result="effect1_foregroundBlur_3557_490"/>
</filter>
</defs>
</svg>
