<svg width="24" height="24" viewBox="0 0 24 24" fill="none" xmlns="http://www.w3.org/2000/svg">
<g clip-path="url(#clip0_37_5158)">
<path d="M19.9987 2H9.33203V5.33333H10.6654V3.33333H19.9987C20.3987 3.33333 20.6654 3.6 20.6654 4V11.3333C20.6654 11.7333 20.3987 12 19.9987 12H11.332V16.6667H7.7987L5.33203 18.6V16.6667H3.33203C2.93203 16.6667 2.66536 16.4 2.66536 16V8.66667C2.66536 8.26667 2.93203 8 3.33203 8H11.9987V6.66667H3.33203C2.1987 6.66667 1.33203 7.53333 1.33203 8.66667V16C1.33203 17.1333 2.1987 18 3.33203 18H3.9987V21.4L8.1987 18H12.6654V13.3333H19.9987C21.132 13.3333 21.9987 12.4667 21.9987 11.3333V4C21.9987 2.86667 21.132 2 19.9987 2Z" fill="#C7C7C7"/>
<path d="M4.13281 15.2663H5.73281L6.13281 14.1997H8.19948L8.59948 15.2663H10.1995L7.93281 9.33301H6.33281L4.13281 15.2663ZM7.13281 10.9997L7.79948 13.0663H6.46615L7.13281 10.9997Z" fill="#C7C7C7"/>
<path d="M13.332 11.3333C14.0654 11.3333 15.0654 11.1333 15.9987 10.6667C16.932 11.1333 17.9987 11.3333 18.6654 11.3333V10C18.6654 10 17.9987 10 17.2654 9.73333C18.0654 8.93333 18.6654 7.73333 18.6654 6V5.33333H16.6654V4H15.332V5.33333H13.332V6.66667H17.2654C17.132 7.86667 16.5987 8.6 15.9987 9.06667C15.5987 8.73333 15.1987 8.26667 14.932 7.66667H13.532C13.7987 8.53333 14.1987 9.2 14.732 9.73333C14.0654 10 13.4654 10 13.332 10V11.3333Z" fill="#C7C7C7"/>
</g>
<defs>
<clipPath id="clip0_37_5158">
<rect width="24" height="24" fill="white"/>
</clipPath>
</defs>
</svg>
