<svg width="24" height="23" viewBox="0 0 24 23" fill="none" xmlns="http://www.w3.org/2000/svg">
<g clip-path="url(#clip0_274_5756)">
<path d="M22.3257 0.886719L13.3867 7.51731L15.0505 3.59775L22.3257 0.886719Z" fill="#E17726" stroke="#E17726" stroke-width="0.0383333" stroke-linecap="round" stroke-linejoin="round"/>
<path d="M1.67266 0.886719L10.5464 7.58264L8.94784 3.63041L1.67266 0.886719ZM19.0939 16.271L16.7124 19.9293L21.8344 21.3338L23.3025 16.369C23.2698 16.369 19.0939 16.271 19.0939 16.271ZM0.726562 16.369L2.19465 21.3338L7.28401 19.9293L4.90245 16.271L0.726562 16.369Z" fill="#E27625" stroke="#E27625" stroke-width="0.0383333" stroke-linecap="round" stroke-linejoin="round"/>
<path d="M6.98877 10.1298L5.58594 12.2856L10.6101 12.4815L10.4469 7.05947L6.98877 10.1298ZM17.0044 10.1298L13.481 6.99414L13.3505 12.5142L18.4072 12.2856C18.4072 12.2529 17.0044 10.1298 17.0044 10.1298ZM7.28239 19.9287L10.3491 18.4589L7.7065 16.4011L7.28239 19.9287ZM13.6767 18.4262L16.7108 19.896L16.2866 16.3684C16.3193 16.4011 13.6767 18.4262 13.6767 18.4262Z" fill="#E27625" stroke="#E27625" stroke-width="0.0383333" stroke-linecap="round" stroke-linejoin="round"/>
<path d="M16.7135 19.9283L13.6795 18.4584L13.9405 20.4509L13.9079 21.3001L16.7135 19.9283ZM7.28516 19.9283L10.1235 21.2675L10.0908 20.4182L10.3518 18.4258L7.28516 19.9283Z" fill="#D5BFB2" stroke="#D5BFB2" stroke-width="0.0383333" stroke-linecap="round" stroke-linejoin="round"/>
<path d="M10.1566 15.0952L7.64453 14.3439L9.43886 13.5273L10.1566 15.0952ZM13.8431 15.0952L14.5935 13.5273L16.3878 14.3439L13.8431 15.0952Z" fill="#233447" stroke="#233447" stroke-width="0.0383333" stroke-linecap="round" stroke-linejoin="round"/>
<path d="M7.28677 19.9297L7.74351 16.2715L4.93783 16.3694C4.90521 16.3694 7.28677 19.9297 7.28677 19.9297ZM16.291 16.2715L16.7151 19.9297L19.0967 16.3694L16.291 16.2715ZM18.4116 12.2539L13.3549 12.4825L13.8116 15.0629L14.5619 13.4951L16.3563 14.3117C16.3889 14.3443 18.4116 12.2539 18.4116 12.2539ZM7.64563 14.3443L9.43996 13.5278L10.1903 15.0956L10.6471 12.5152L5.59031 12.2866L7.64563 14.3443Z" fill="#CC6228" stroke="#CC6228" stroke-width="0.0383333" stroke-linecap="round" stroke-linejoin="round"/>
<path d="M5.58594 12.2539L7.7065 16.3694L7.64126 14.3117C7.64126 14.3443 5.58594 12.2539 5.58594 12.2539ZM16.3845 14.3443L16.2866 16.4021L18.4072 12.2866C18.4072 12.2539 16.3845 14.3443 16.3845 14.3443ZM10.6427 12.4825L10.1533 15.0629L10.7405 18.1333L10.871 14.083L10.6427 12.4825ZM13.3831 12.4825L13.1221 14.083L13.2526 18.1333L13.8398 15.0629L13.3831 12.4825Z" fill="#E27525" stroke="#E27525" stroke-width="0.0383333" stroke-linecap="round" stroke-linejoin="round"/>
<path d="M13.8431 15.095L13.2559 18.1653L13.68 18.4593L16.2899 16.4015L16.3878 14.3438L13.8431 15.095ZM7.64453 14.3438L7.70978 16.4015L10.3523 18.4593L10.7764 18.1653L10.1892 15.095L7.64453 14.3438Z" fill="#F5841F" stroke="#F5841F" stroke-width="0.0383333" stroke-linecap="round" stroke-linejoin="round"/>
<path d="M13.9079 21.2683L13.9405 20.4191L13.7121 20.2231H10.3192L10.0908 20.4191L10.1235 21.2683L7.28516 19.9291L8.2965 20.7457L10.3192 22.1176H13.7774L15.8001 20.7131L16.7788 19.8965L13.9079 21.2683Z" fill="#C0AC9D" stroke="#C0AC9D" stroke-width="0.0383333" stroke-linecap="round" stroke-linejoin="round"/>
<path d="M13.6785 18.4268L13.2544 18.1328H10.775L10.3508 18.4268L10.0898 20.4192L10.3182 20.2232H13.7111L13.9395 20.4192L13.6785 18.4268Z" fill="#161616" stroke="#161616" stroke-width="0.0383333" stroke-linecap="round" stroke-linejoin="round"/>
<path d="M22.7156 7.9746L23.466 4.31634L22.3242 0.886719L13.6788 7.32134L17.0064 10.1304L21.7043 11.5022L22.7483 10.2937L22.2915 9.96704L23.0093 9.31378L22.4547 8.88916L23.1724 8.33389L22.7156 7.9746ZM0.53125 4.31634L1.2816 7.9746L0.824867 8.33389L1.5426 8.88916L0.987988 9.31378L1.70572 9.96704L1.24898 10.2937L2.29295 11.5022L6.99082 10.1304L10.3185 7.32134L1.67309 0.886719L0.53125 4.31634Z" fill="#763E1A" stroke="#763E1A" stroke-width="0.0383333" stroke-linecap="round" stroke-linejoin="round"/>
<path d="M21.7039 11.5021L17.006 10.1303L18.4088 12.2534L16.2883 16.3689L19.0939 16.3362H23.2698L21.7039 11.5021ZM6.99039 10.1303L2.29252 11.5021L0.726562 16.3689H4.90245L7.70812 16.4016L5.58756 12.286L6.99039 10.1303ZM13.3847 12.482L13.6783 7.28858L15.0485 3.59766H8.94784L10.3181 7.28858L10.6117 12.482L10.7422 14.1152V18.1327H13.2542V14.1152L13.3847 12.482Z" fill="#F5841F" stroke="#F5841F" stroke-width="0.0383333" stroke-linecap="round" stroke-linejoin="round"/>
</g>
<defs>
<clipPath id="clip0_274_5756">
<rect width="23" height="21.2963" fill="white" transform="translate(0.5 0.855469)"/>
</clipPath>
</defs>
</svg>
