<svg width="24" height="24" viewBox="0 0 24 24" fill="none" xmlns="http://www.w3.org/2000/svg">
<path fill-rule="evenodd" clip-rule="evenodd" d="M12.593 23.258L12.582 23.26L12.511 23.295L12.491 23.299L12.477 23.295L12.406 23.26C12.3953 23.2567 12.3873 23.2583 12.382 23.265L12.378 23.275L12.361 23.703L12.366 23.723L12.376 23.736L12.48 23.81L12.495 23.814L12.507 23.81L12.611 23.736L12.623 23.72L12.627 23.703L12.61 23.276C12.6073 23.2653 12.6017 23.2593 12.593 23.258ZM12.858 23.145L12.845 23.147L12.66 23.24L12.65 23.25L12.647 23.261L12.665 23.691L12.67 23.703L12.678 23.71L12.879 23.803C12.8917 23.8063 12.9013 23.8037 12.908 23.795L12.912 23.781L12.878 23.167C12.8747 23.155 12.868 23.1477 12.858 23.145ZM12.143 23.147C12.1386 23.1443 12.1333 23.1435 12.1283 23.1446C12.1233 23.1457 12.1189 23.1487 12.116 23.153L12.11 23.167L12.076 23.781C12.0767 23.793 12.0823 23.801 12.093 23.805L12.108 23.803L12.309 23.71L12.319 23.702L12.323 23.691L12.34 23.261L12.337 23.249L12.327 23.239L12.143 23.147Z" fill="#CEC8C1"/>
<path fill-rule="evenodd" clip-rule="evenodd" d="M3 4.5C3 4.10218 3.15804 3.72064 3.43934 3.43934C3.72064 3.15804 4.10218 3 4.5 3H19.5C19.8978 3 20.2794 3.15804 20.5607 3.43934C20.842 3.72064 21 4.10218 21 4.5V6.586C20.9999 7.11639 20.7891 7.62501 20.414 8L15 13.414V20.838C15 21.0255 14.9521 21.2099 14.8608 21.3737C14.7695 21.5375 14.6379 21.6753 14.4783 21.7739C14.3188 21.8724 14.1368 21.9286 13.9494 21.9371C13.7621 21.9455 13.5757 21.9059 13.408 21.822L9.691 19.964C9.48337 19.8602 9.30875 19.7006 9.1867 19.5031C9.06466 19.3057 9.00001 19.0781 9 18.846V13.414L3.586 8C3.2109 7.62501 3.00011 7.11639 3 6.586V4.5ZM5 5V6.586L10.56 12.146C10.6994 12.2853 10.8101 12.4507 10.8856 12.6327C10.9611 12.8148 11 13.0099 11 13.207V18.382L13 19.382V13.207C13 12.809 13.158 12.427 13.44 12.147L19 6.585V5H5Z" fill="#CEC8C1"/>
</svg>
