<svg width="80" height="20" viewBox="0 0 80 20" fill="none" xmlns="http://www.w3.org/2000/svg">
<path d="M10.0003 1.66602C5.40033 1.66602 1.66699 5.39935 1.66699 9.99935C1.66699 14.5993 5.40033 18.3327 10.0003 18.3327C14.6003 18.3327 18.3337 14.5993 18.3337 9.99935C18.3337 5.39935 14.6003 1.66602 10.0003 1.66602ZM10.0003 16.666C6.31699 16.666 3.33366 13.6827 3.33366 9.99935C3.33366 6.31602 6.31699 3.33268 10.0003 3.33268C13.6837 3.33268 16.667 6.31602 16.667 9.99935C16.667 13.6827 13.6837 16.666 10.0003 16.666Z" fill="#666666"/>
<path d="M24.98 15V4.584H29.488C30.664 4.584 31.56 4.934 32.134 5.564C32.694 6.166 33.016 6.922 33.016 7.846C33.016 9.806 31.77 11.08 29.572 11.08H26.94V15H24.98ZM26.94 6.25V9.526H29.264C30.454 9.526 31.07 8.882 31.07 7.874C31.07 6.824 30.426 6.25 29.292 6.25H26.94ZM38.9021 15C38.7761 14.832 38.6781 14.538 38.6501 14.034H38.6221C38.1321 14.692 37.4601 15.182 36.2701 15.182C34.8141 15.182 33.7221 14.426 33.7221 12.97C33.7221 11.276 35.0101 10.87 36.7881 10.66C38.0201 10.506 38.6361 10.31 38.6361 9.638C38.6361 8.994 38.1881 8.56 37.2921 8.56C36.2981 8.56 35.8081 9.022 35.7661 9.764H34.0861C34.1421 8.49 35.1501 7.328 37.2781 7.328C38.1321 7.328 38.7901 7.454 39.2801 7.762C39.9801 8.182 40.3441 8.896 40.3441 9.89V13.824C40.3441 14.44 40.4561 14.762 40.6241 14.874V15H38.9021ZM36.7881 13.964C38.0061 13.964 38.6781 13.124 38.6781 12.284V11.178C38.3281 11.402 37.7681 11.556 37.2221 11.668C36.1301 11.878 35.5001 12.102 35.5001 12.928C35.5001 13.726 36.1021 13.964 36.7881 13.964ZM43.3891 17.548C43.1651 17.548 42.2131 17.506 42.0871 17.464V16.022H42.1851C42.2551 16.064 42.7451 16.092 42.9271 16.092C43.5291 16.092 43.8651 15.868 44.0191 15.266C44.0191 15.126 44.0891 14.426 43.9351 14.02L41.3591 7.524H43.2491L44.4811 10.996C44.8031 11.92 45.1111 13.32 45.1111 13.32H45.1391C45.1391 13.32 45.4751 11.906 45.7831 10.996L46.9731 7.524H48.7651L45.8671 15.42C45.2511 17.072 44.6071 17.548 43.3891 17.548ZM50.0659 15V4.584H54.5739C55.7499 4.584 56.6459 4.934 57.2199 5.564C57.7799 6.166 58.1019 6.922 58.1019 7.846C58.1019 9.806 56.8559 11.08 54.6579 11.08H52.0259V15H50.0659ZM52.0259 6.25V9.526H54.3499C55.5399 9.526 56.1559 8.882 56.1559 7.874C56.1559 6.824 55.5119 6.25 54.3779 6.25H52.0259ZM63.988 15C63.862 14.832 63.764 14.538 63.736 14.034H63.708C63.218 14.692 62.546 15.182 61.356 15.182C59.9 15.182 58.808 14.426 58.808 12.97C58.808 11.276 60.096 10.87 61.874 10.66C63.106 10.506 63.722 10.31 63.722 9.638C63.722 8.994 63.274 8.56 62.378 8.56C61.384 8.56 60.894 9.022 60.852 9.764H59.172C59.228 8.49 60.236 7.328 62.364 7.328C63.218 7.328 63.876 7.454 64.366 7.762C65.066 8.182 65.43 8.896 65.43 9.89V13.824C65.43 14.44 65.542 14.762 65.71 14.874V15H63.988ZM61.874 13.964C63.092 13.964 63.764 13.124 63.764 12.284V11.178C63.414 11.402 62.854 11.556 62.308 11.668C61.216 11.878 60.586 12.102 60.586 12.928C60.586 13.726 61.188 13.964 61.874 13.964ZM67.3517 15V4.584H69.1437V15H67.3517Z" fill="white"/>
</svg>
