<svg width="98" height="100" viewBox="0 0 98 100" fill="none" xmlns="http://www.w3.org/2000/svg">
<g id="Group">
<path id="Vector" d="M11.1339 43.8022C11.1339 43.8022 28.1654 43.1201 31.8459 15.124C35.1143 -9.7393 63.8339 1.57756 72.1357 11.4887C82.8899 24.3276 77.1572 46.4134 91.069 49.2035C104.981 51.9935 95.8962 83.0142 74.7788 80.045C48.5094 76.3514 54.8651 91.7018 46.9792 98.199C41.3196 102.862 18.1134 98.3733 17.34 81.446C16.6891 67.202 10.6807 67.2471 6.42189 65.632C0.279705 63.3026 -3.59055 46.4325 11.1339 43.8022Z" fill="#757C89"/>
<g id="Group_2">
<g id="Group_3">
<path id="Vector_2" d="M69.0318 74.8936L52.2988 58.3593L48.9855 61.7124L65.7184 78.2468L69.0318 74.8936Z" fill="#E3DAFF"/>
<path id="Vector_3" d="M75.4235 79.3365L62.4052 66.4727C62.3327 66.4011 62.2159 66.4018 62.1442 66.4743L57.2169 71.4608C57.1453 71.5332 57.146 71.6501 57.2185 71.7217L70.2368 84.5855C70.3092 84.6571 70.4261 84.6564 70.4977 84.5839L75.425 79.5974C75.4966 79.5249 75.4959 79.4081 75.4235 79.3365Z" fill="#B4A1FF"/>
<path id="Vector_4" d="M37.4684 66.6748C48.9802 66.6748 58.3123 57.3427 58.3123 45.8309C58.3123 34.3192 48.9802 24.9871 37.4684 24.9871C25.9566 24.9871 16.6245 34.3192 16.6245 45.8309C16.6245 57.3427 25.9566 66.6748 37.4684 66.6748Z" fill="#B4A1FF"/>
<path id="Vector_5" d="M37.4682 63.2738C47.1016 63.2738 54.911 55.4644 54.911 45.831C54.911 36.1976 47.1016 28.3882 37.4682 28.3882C27.8348 28.3882 20.0254 36.1976 20.0254 45.831C20.0254 55.4644 27.8348 63.2738 37.4682 63.2738Z" fill="#D4E5FF"/>
</g>
<path id="Vector_6" d="M72.7072 26.988C67.818 25.4032 62.5342 28.0836 60.9429 32.9929C59.3582 37.8822 62.0385 43.1659 66.9479 44.7571C71.8573 46.3483 77.1273 43.6417 78.7124 38.7522C80.2975 33.8627 77.5967 28.5727 72.7072 26.988ZM71.2319 31.5396C71.7792 31.717 72.2615 32.0529 72.6175 32.5048C72.9736 32.9567 73.1875 33.5041 73.232 34.0777C73.2765 34.6513 73.1496 35.2251 72.8675 35.7265C72.5854 36.2279 72.1608 36.6342 71.6474 36.8939C71.1341 37.1536 70.5552 37.255 69.9841 37.1852C69.4131 37.1154 68.8756 36.8776 68.4399 36.5019C68.0042 36.1263 67.6899 35.6297 67.5368 35.0751C67.3837 34.5205 67.3988 33.933 67.5801 33.387C68.0697 31.8765 69.7211 31.05 71.2319 31.5396ZM67.5406 42.9286C65.9162 42.4047 64.5245 41.3325 63.6037 39.8954C65.3267 38.9164 67.1283 38.6437 68.7582 39.172C70.388 39.7003 71.7134 40.9644 72.5082 42.7815C70.9195 43.4052 69.1634 43.4572 67.5406 42.9286Z" fill="#E3DAFF"/>
<path id="Vector_7" d="M32.0124 71.5416C31.1632 71.9751 30.4616 72.6507 29.9963 73.4829C29.531 74.3152 29.3229 75.2667 29.3984 76.2172C29.4739 77.1677 29.8296 78.0744 30.4204 78.8228C31.0113 79.5711 31.8107 80.1275 32.7178 80.4215C33.6248 80.7154 34.5986 80.7339 35.5161 80.4744C36.4336 80.2149 37.2535 79.6892 37.8722 78.9637C38.491 78.2382 38.8806 77.3455 38.992 76.3986C39.1034 75.4516 38.9315 74.4929 38.498 73.6437C37.9157 72.5059 36.9058 71.6456 35.6899 71.2515C34.474 70.8574 33.1515 70.9617 32.0124 71.5416ZM33.1353 73.7414C33.3998 73.6063 33.6984 73.5529 33.9934 73.5878C34.2883 73.6228 34.5661 73.7446 34.7918 73.9377C35.0174 74.1308 35.1805 74.3865 35.2606 74.6725C35.3406 74.9585 35.3339 75.2618 35.2413 75.544C35.1487 75.8262 34.9744 76.0745 34.7405 76.2574C34.5065 76.4404 34.2235 76.5497 33.9274 76.5716C33.6312 76.5935 33.3352 76.5269 33.0769 76.3803C32.8187 76.2337 32.6098 76.0137 32.4767 75.7482C32.3003 75.3943 32.2706 74.9852 32.3939 74.6095C32.5172 74.2338 32.7835 73.9218 33.1353 73.7412V73.7414ZM35.9448 79.2456C35.1608 79.6473 34.2614 79.7639 33.4009 79.5754C33.6724 78.5892 34.2304 77.8322 35.0183 77.4301C35.8062 77.028 36.7511 77.0057 37.7044 77.3788C37.3522 78.1862 36.7301 78.8461 35.9448 79.2454V79.2456Z" fill="#E3DAFF"/>
</g>
</g>
</svg>
