<svg width="24" height="25" viewBox="0 0 24 25" fill="none" xmlns="http://www.w3.org/2000/svg">
<path d="M12.0005 23.4581C6.07024 23.4581 1.25 18.6379 1.25 12.7076C1.25 6.77727 6.07024 1.95703 12.0005 1.95703C17.9308 1.95703 22.7511 6.77727 22.7511 12.7076C22.7511 18.6379 17.9308 23.4581 12.0005 23.4581ZM12.0005 3.4571C6.90028 3.4571 2.75007 7.60731 2.75007 12.7076C2.75007 17.8078 6.90028 21.958 12.0005 21.958C17.1008 21.958 21.251 17.8078 21.251 12.7076C21.251 7.60731 17.1008 3.4571 12.0005 3.4571Z" fill="#A3A3A3"/>
<path d="M9.0024 22.4589H8.00231C7.59227 22.4589 7.25223 22.1189 7.25223 21.7089C7.25223 21.2988 7.57226 20.9688 7.9823 20.9588C6.41215 15.5983 6.41215 9.81771 7.9823 4.45718C7.57226 4.44718 7.25223 4.11715 7.25223 3.7071C7.25223 3.29706 7.59227 2.95703 8.00231 2.95703H9.0024C9.24243 2.95703 9.47245 3.07704 9.61246 3.26706C9.75248 3.46708 9.79248 3.71711 9.71247 3.94713C7.83229 9.59768 7.83229 15.8183 9.71247 21.4789C9.79248 21.7089 9.75248 21.9589 9.61246 22.1589C9.47245 22.3389 9.24243 22.4589 9.0024 22.4589Z" fill="#A3A3A3"/>
<path d="M14.9985 22.4577C14.9185 22.4577 14.8385 22.4477 14.7585 22.4177C14.3685 22.2876 14.1484 21.8576 14.2884 21.4676C16.1686 15.817 16.1686 9.5964 14.2884 3.93584C14.1584 3.5458 14.3685 3.11576 14.7585 2.98575C15.1585 2.85574 15.5786 3.06576 15.7086 3.4558C17.6988 9.41638 17.6988 15.977 15.7086 21.9276C15.6086 22.2576 15.3085 22.4577 14.9985 22.4577Z" fill="#A3A3A3"/>
<path d="M12.001 17.9061C9.21068 17.9061 6.43041 17.5161 3.75015 16.726C3.74015 17.1261 3.41011 17.4561 3.00007 17.4561C2.59003 17.4561 2.25 17.1161 2.25 16.706V15.7059C2.25 15.4659 2.37001 15.2359 2.56003 15.0959C2.76005 14.9559 3.01007 14.9158 3.2401 14.9959C8.89065 16.876 15.1213 16.876 20.7718 14.9959C21.0018 14.9158 21.2519 14.9559 21.4519 15.0959C21.6519 15.2359 21.7619 15.4659 21.7619 15.7059V16.706C21.7619 17.1161 21.4219 17.4561 21.0118 17.4561C20.6018 17.4561 20.2718 17.1361 20.2618 16.726C17.5715 17.5161 14.7912 17.9061 12.001 17.9061Z" fill="#A3A3A3"/>
<path d="M21.0016 10.4587C20.9216 10.4587 20.8416 10.4486 20.7616 10.4186C15.111 8.53846 8.88044 8.53846 3.22988 10.4186C2.82984 10.5487 2.4098 10.3386 2.27979 9.9486C2.15978 9.54856 2.3698 9.12852 2.75983 8.99851C8.72042 7.00831 15.2811 7.00831 21.2317 8.99851C21.6217 9.12852 21.8417 9.55856 21.7017 9.9486C21.6117 10.2586 21.3117 10.4587 21.0016 10.4587Z" fill="#A3A3A3"/>
</svg>
