<svg width="24" height="25" viewBox="0 0 24 25" fill="none" xmlns="http://www.w3.org/2000/svg">
<path d="M12 14.0085C11.87 14.0085 11.74 13.9785 11.62 13.9085L2.78914 8.798C2.43911 8.58798 2.3091 8.12794 2.51912 7.7679C2.72914 7.40787 3.18918 7.28785 3.54922 7.49787L12 12.3884L20.4009 7.52788C20.7609 7.31786 21.221 7.44787 21.431 7.7979C21.641 8.15794 21.511 8.61798 21.161 8.82801L12.3901 13.9085C12.2601 13.9685 12.1301 14.0085 12 14.0085Z" fill="#A3A3A3"/>
<path d="M12.0001 23.0691C11.59 23.0691 11.25 22.7291 11.25 22.319V13.2481C11.25 12.8381 11.59 12.498 12.0001 12.498C12.4101 12.498 12.7501 12.8381 12.7501 13.2481V22.319C12.7501 22.7291 12.4101 23.0691 12.0001 23.0691Z" fill="#A3A3A3"/>
<path d="M12.0011 23.4581C11.1211 23.4581 10.251 23.2681 9.56101 22.8881L4.22075 19.9179C2.77068 19.1179 1.64062 17.1878 1.64062 15.5277V9.87742C1.64062 8.21734 2.77068 6.29724 4.22075 5.4872L9.56101 2.52706C10.9311 1.76702 13.0712 1.76702 14.4413 2.52706L19.7815 5.49721C21.2316 6.29724 22.3616 8.22734 22.3616 9.88742V15.5377C22.3616 17.1978 21.2316 19.1179 19.7815 19.9279L14.4413 22.8881C13.7512 23.2681 12.8812 23.4581 12.0011 23.4581ZM12.0011 3.4571C11.3711 3.4571 10.7511 3.58711 10.291 3.83712L4.95079 6.80727C3.99074 7.3373 3.1407 8.77737 3.1407 9.87742V15.5277C3.1407 16.6278 3.99074 18.0678 4.95079 18.6078L10.291 21.578C11.2011 22.088 12.8012 22.088 13.7112 21.578L19.0515 18.6078C20.0115 18.0678 20.8616 16.6378 20.8616 15.5277V9.87742C20.8616 8.77737 20.0115 7.3373 19.0515 6.79727L13.7112 3.82712C13.2512 3.58711 12.6312 3.4571 12.0011 3.4571Z" fill="#A3A3A3"/>
</svg>
