<svg width="20" height="21" viewBox="0 0 20 21" fill="none" xmlns="http://www.w3.org/2000/svg">
<path d="M13.3358 7.98986V17.4575C13.3358 18.6659 12.469 19.1743 11.4106 18.5909L8.13528 16.7657C7.78524 16.574 7.21851 16.574 6.86847 16.7657L3.59316 18.5909C2.53472 19.1743 1.66797 18.6659 1.66797 17.4575V7.98986C1.66797 6.56472 2.83474 5.39795 4.25988 5.39795H10.7439C12.169 5.39795 13.3358 6.56472 13.3358 7.98986Z" stroke="#292D32" stroke-width="1.24737" stroke-linecap="round" stroke-linejoin="round"/>
<path d="M18.3358 4.7567V14.2243C18.3358 15.4328 17.469 15.9411 16.4106 15.3577L13.3353 13.6409V7.99036C13.3353 6.56522 12.1685 5.39845 10.7434 5.39845H6.66797V4.7567C6.66797 3.33156 7.83474 2.16479 9.25988 2.16479H15.7439C17.169 2.16479 18.3358 3.33156 18.3358 4.7567Z" stroke="#292D32" stroke-width="1.24737" stroke-linecap="round" stroke-linejoin="round"/>
<path d="M5.83203 10.4976H9.16569" stroke="#292D32" stroke-width="1.24737" stroke-linecap="round" stroke-linejoin="round"/>
<path d="M7.5 12.1647V8.83105" stroke="#292D32" stroke-width="1.24737" stroke-linecap="round" stroke-linejoin="round"/>
</svg>
