<svg width="113" height="43" viewBox="0 0 113 43" fill="none" xmlns="http://www.w3.org/2000/svg">
<path d="M42.1061 28.2329C40.2212 28.2329 38.715 27.829 37.5874 27.0211C36.4767 26.1965 35.8876 25.0689 35.8203 23.6385H39.7079C39.8593 24.9175 40.6503 25.557 42.0808 25.557C42.7035 25.557 43.1915 25.4476 43.545 25.2288C43.9152 24.9932 44.1003 24.6735 44.1003 24.2696C44.1003 24.1349 44.0835 24.0171 44.0498 23.9161C44.0162 23.8152 43.9573 23.7226 43.8731 23.6385C43.789 23.5543 43.7048 23.4786 43.6207 23.4113C43.5534 23.3439 43.444 23.285 43.2925 23.2346C43.1411 23.1672 43.0064 23.1167 42.8886 23.0831C42.7876 23.0494 42.6278 23.0158 42.409 22.9821C42.207 22.9316 42.0472 22.898 41.9293 22.8811C41.8115 22.8475 41.6264 22.8138 41.374 22.7802C41.1215 22.7297 40.9364 22.696 40.8186 22.6792C40.2801 22.595 39.8257 22.5109 39.4554 22.4267C39.0852 22.3258 38.6729 22.1743 38.2185 21.9724C37.7809 21.7704 37.4191 21.5432 37.133 21.2908C36.8637 21.0215 36.6365 20.6681 36.4514 20.2305C36.2663 19.7761 36.1737 19.2544 36.1737 18.6654C36.1737 17.3527 36.7039 16.3345 37.7641 15.6109C38.8243 14.8872 40.1539 14.5254 41.7526 14.5254C43.5534 14.5254 44.9502 14.8956 45.9431 15.6361C46.9361 16.3598 47.483 17.3695 47.584 18.6654H43.7974C43.6628 17.6556 42.9728 17.1508 41.7274 17.1508C41.1889 17.1508 40.7513 17.2517 40.4147 17.4537C40.095 17.6556 39.9351 17.9502 39.9351 18.3372C39.9351 18.4382 39.9519 18.5308 39.9856 18.6149C40.0192 18.6991 40.0697 18.7748 40.137 18.8421C40.2212 18.9094 40.2969 18.9683 40.3642 19.0188C40.4484 19.0693 40.5578 19.1198 40.6924 19.1703C40.827 19.2208 40.9448 19.2628 41.0458 19.2965C41.1636 19.3302 41.3151 19.3638 41.5002 19.3975C41.7022 19.4311 41.862 19.4648 41.9798 19.4984C42.1145 19.5153 42.2912 19.5489 42.51 19.5994C42.7287 19.6331 42.9054 19.6583 43.0401 19.6752C43.6123 19.7761 44.0835 19.8687 44.4537 19.9528C44.824 20.037 45.2531 20.1884 45.7412 20.4072C46.2461 20.6092 46.6416 20.8532 46.9277 21.1393C47.2137 21.4086 47.4578 21.7872 47.6597 22.2753C47.8785 22.7465 47.9879 23.3019 47.9879 23.9414C47.9879 25.3214 47.4409 26.3816 46.347 27.1221C45.27 27.8626 43.8563 28.2329 42.1061 28.2329Z" fill="#FFF963"/>
<path d="M55.5053 28.2076C53.4184 28.2076 51.7439 27.5681 50.4817 26.2891C49.2364 24.9932 48.6137 23.3439 48.6137 21.3413C48.6137 19.3891 49.2279 17.765 50.4565 16.4692C51.7018 15.1733 53.3006 14.5254 55.2528 14.5254C57.0199 14.5254 58.4925 15.0639 59.6705 16.141C61.2188 17.5547 61.9761 19.6499 61.9425 22.4267H52.6527C52.7873 23.3187 53.0987 24.0171 53.5867 24.522C54.0748 25.01 54.7311 25.2541 55.5558 25.2541C56.616 25.2541 57.3312 24.8249 57.7015 23.9666H61.7153C61.4124 25.212 60.6887 26.2302 59.5443 27.0211C58.4167 27.8121 57.0704 28.2076 55.5053 28.2076ZM52.6779 19.9781H57.7772C57.7099 19.2039 57.4491 18.5897 56.9947 18.1353C56.5571 17.6809 56.0017 17.4537 55.3286 17.4537C53.8644 17.4537 52.9809 18.2952 52.6779 19.9781Z" fill="#FFF963"/>
<path d="M63.0676 27.829V14.904H67.0057V16.9236H67.0814C67.9565 15.4426 69.1346 14.7021 70.6155 14.7021C71.0026 14.7021 71.2719 14.7358 71.4233 14.8031V18.3372H71.3224C70.0433 18.1521 69.0336 18.3793 68.2931 19.0188C67.5526 19.6415 67.1824 20.6428 67.1824 22.0228V27.829H63.0676Z" fill="#FFF963"/>
<path d="M78.5433 28.2076C76.4565 28.2076 74.782 27.5681 73.5198 26.2891C72.2744 24.9932 71.6517 23.3439 71.6517 21.3413C71.6517 19.3891 72.266 17.765 73.4945 16.4692C74.7399 15.1733 76.3387 14.5254 78.2909 14.5254C80.058 14.5254 81.5305 15.0639 82.7086 16.141C84.2569 17.5547 85.0142 19.6499 84.9805 22.4267H75.6908C75.8254 23.3187 76.1367 24.0171 76.6248 24.522C77.1128 25.01 77.7692 25.2541 78.5938 25.2541C79.6541 25.2541 80.3693 24.8249 80.7396 23.9666H84.7533C84.4504 25.212 83.7268 26.2302 82.5824 27.0211C81.4548 27.8121 80.1085 28.2076 78.5433 28.2076ZM75.716 19.9781H80.8153C80.748 19.2039 80.4871 18.5897 80.0327 18.1353C79.5952 17.6809 79.0398 17.4537 78.3666 17.4537C76.9025 17.4537 76.0189 18.2952 75.716 19.9781Z" fill="#FFF963"/>
<path d="M86.1057 27.829V14.904H90.069V16.6711H90.1447C91.1376 15.2406 92.4671 14.5254 94.1332 14.5254C95.5301 14.5254 96.624 14.9798 97.415 15.8886C98.2228 16.7805 98.6267 17.9586 98.6267 19.4227V27.829H94.5119V20.2558C94.5119 19.5489 94.3352 18.9936 93.9818 18.5897C93.6452 18.1689 93.1487 17.9586 92.4924 17.9586C91.8192 17.9586 91.2723 18.211 90.8515 18.7159C90.4308 19.2208 90.2204 19.8771 90.2204 20.6849V27.829H86.1057Z" fill="#FFF963"/>
<path d="M106.561 28.2076C104.474 28.2076 102.8 27.5681 101.538 26.2891C100.292 24.9932 99.6696 23.3439 99.6696 21.3413C99.6696 19.3891 100.284 17.765 101.512 16.4692C102.758 15.1733 104.357 14.5254 106.309 14.5254C108.076 14.5254 109.548 15.0639 110.726 16.141C112.275 17.5547 113.032 19.6499 112.998 22.4267H103.709C103.843 23.3187 104.155 24.0171 104.643 24.522C105.131 25.01 105.787 25.2541 106.612 25.2541C107.672 25.2541 108.387 24.8249 108.757 23.9666H112.771C112.468 25.212 111.745 26.2302 110.6 27.0211C109.473 27.8121 108.126 28.2076 106.561 28.2076ZM103.734 19.9781H108.833C108.766 19.2039 108.505 18.5897 108.051 18.1353C107.613 17.6809 107.058 17.4537 106.384 17.4537C104.92 17.4537 104.037 18.2952 103.734 19.9781Z" fill="#FFF963"/>
<path d="M12.7029 28.1272C12.4166 28.733 12.2734 29.0359 12.0079 29.256C11.8322 29.4016 11.5399 29.5403 11.3161 29.5843C10.9777 29.6508 10.7237 29.5878 10.2159 29.4619C9.07049 29.1779 8.40006 28.6726 6.92236 27.7241C4.83888 26.3867 3.11739 24.5561 1.91037 22.3945C0.703352 20.2329 0.0480617 17.807 0.00254494 15.3316C-0.0429718 12.8562 0.52269 10.4079 1.64943 8.20333C2.77616 5.9988 4.42919 4.10617 6.46209 2.69308C8.49499 1.28 10.845 0.390084 13.304 0.102158C15.763 -0.185767 18.255 0.137187 20.5594 1.04242C22.2679 1.71359 23.5126 2.45546 24.6965 3.56238C25.0992 3.93887 25.3005 4.12711 25.4289 4.42214C25.5333 4.66223 25.5791 4.99646 25.543 5.2558C25.4987 5.57447 25.3313 5.84955 24.9964 6.3997C24.3781 7.41548 24.0689 7.92337 23.737 8.12078C23.3953 8.32407 23.1552 8.37506 22.7603 8.32825C22.3768 8.28279 21.7963 7.88101 20.6353 7.07746C19.9457 6.60018 19.2417 6.19616 18.6293 5.9556C17.1329 5.36777 15.5147 5.15805 13.9179 5.34502C12.3211 5.53199 10.7951 6.10988 9.47497 7.02749C8.15486 7.9451 7.08144 9.17412 6.34977 10.6057C5.6181 12.0372 5.25078 13.6271 5.28034 15.2346C5.3099 16.842 5.73542 18.4173 6.51922 19.821C7.30302 21.2247 8.42091 22.4134 9.77385 23.2819C10.0886 23.4839 10.4137 23.6671 10.7476 23.831C12.2238 24.5555 12.9619 24.9177 13.1899 25.2378C13.4028 25.5366 13.4559 25.6885 13.4757 26.0549C13.497 26.4472 13.2323 27.0072 12.7029 28.1272Z" fill="#FFF963"/>
<path d="M4.01118 36.738C3.58365 37.4186 3.36988 37.7588 3.34798 38.1601C3.33568 38.3853 3.39041 38.6781 3.4832 38.8837C3.64852 39.2499 3.92693 39.4574 4.48376 39.8723C5.7965 40.8505 7.26387 41.6109 8.82984 42.1194C11.0613 42.844 13.4313 43.037 15.7506 42.683C18.07 42.329 20.2745 41.4379 22.1882 40.0806C24.102 38.7234 25.6721 36.9377 26.7732 34.8659C27.8743 32.7942 28.4759 30.4937 28.5301 28.1482C28.5842 25.8026 28.0895 23.4768 27.0852 21.3565C26.0809 19.2361 24.595 17.3797 22.7459 15.9356C21.4744 14.9425 20.5059 14.0624 19.2768 13.4596C18.7623 13.2073 18.505 13.0812 18.0802 13.1151C17.8682 13.1321 17.5445 13.2411 17.3654 13.3559C17.0067 13.586 16.8353 13.9278 16.4925 14.6114C15.9115 15.7699 15.621 16.3492 15.6366 16.7487C15.6484 17.0494 15.6816 17.1694 15.826 17.4334C16.0179 17.7841 16.7002 18.2179 18.0648 19.0853C18.5917 19.4203 19.0827 19.7724 19.4967 20.0958C20.6975 21.0336 21.6624 22.239 22.3145 23.6159C22.9667 24.9929 23.288 26.5031 23.2528 28.0263C23.2176 29.5494 22.8269 31.0432 22.1119 32.3886C21.3969 33.7339 20.3773 34.8935 19.1346 35.7749C17.8919 36.6562 16.4603 37.2349 14.9542 37.4647C13.4481 37.6946 11.9091 37.5693 10.4601 37.0988C9.82784 36.8935 9.05512 36.4786 8.29484 35.9871C7.12872 35.2334 6.54566 34.8565 6.11799 34.8411C5.8189 34.8303 5.62224 34.8738 5.35569 35.0099C4.97456 35.2046 4.65343 35.7157 4.01118 36.738Z" fill="#FFF963"/>
</svg>
