<svg width="24" height="25" viewBox="0 0 24 25" fill="none" xmlns="http://www.w3.org/2000/svg">
<path d="M12.1591 12.328C12.1291 12.328 12.1091 12.328 12.0791 12.328C12.0291 12.318 11.9591 12.318 11.8991 12.328C8.99881 12.238 6.80859 9.95782 6.80859 7.14754C6.80859 4.28726 9.13882 1.95703 11.9991 1.95703C14.8594 1.95703 17.1896 4.28726 17.1896 7.14754C17.1796 9.95782 14.9794 12.238 12.1891 12.328C12.1791 12.328 12.1691 12.328 12.1591 12.328ZM11.9991 3.45718C9.9689 3.45718 8.30874 5.11734 8.30874 7.14754C8.30874 9.14774 9.86889 10.7579 11.8591 10.8279C11.9091 10.8179 12.0491 10.8179 12.1791 10.8279C14.1393 10.7379 15.6795 9.12774 15.6895 7.14754C15.6895 5.11734 14.0293 3.45718 11.9991 3.45718Z" fill="#A3A3A3"/>
<path d="M12.1723 23.2561C10.2121 23.2561 8.24192 22.756 6.75177 21.7559C5.36164 20.8358 4.60156 19.5757 4.60156 18.2056C4.60156 16.8354 5.36164 15.5653 6.75177 14.6352C9.75207 12.645 14.6125 12.645 17.5928 14.6352C18.973 15.5553 19.743 16.8154 19.743 18.1856C19.743 19.5557 18.983 20.8258 17.5928 21.7559C16.0927 22.756 14.1325 23.2561 12.1723 23.2561ZM7.58186 15.8953C6.62176 16.5354 6.10171 17.3555 6.10171 18.2156C6.10171 19.0657 6.63176 19.8857 7.58186 20.5158C10.0721 22.186 14.2725 22.186 16.7628 20.5158C17.7229 19.8757 18.2429 19.0557 18.2429 18.1956C18.2429 17.3455 17.7129 16.5254 16.7628 15.8953C14.2725 14.2352 10.0721 14.2352 7.58186 15.8953Z" fill="#A3A3A3"/>
</svg>
