<svg width="30" height="44" viewBox="0 0 30 44" fill="none" xmlns="http://www.w3.org/2000/svg">
<path d="M12.9553 28.6861C12.6633 29.304 12.5173 29.6129 12.2465 29.8374C12.0674 29.9859 11.7693 30.1274 11.541 30.1722C11.1958 30.24 10.9369 30.1758 10.4189 30.0474C9.25074 29.7577 8.56699 29.2424 7.05992 28.2751C4.93504 26.9111 3.17934 25.0441 1.94834 22.8396C0.71733 20.635 0.0490168 18.1608 0.00259552 15.6363C-0.0438257 13.1117 0.533078 10.6147 1.6822 8.36635C2.83133 6.11801 4.51721 4.18777 6.59051 2.7466C8.66381 1.30544 11.0605 0.397836 13.5684 0.104188C16.0762 -0.189459 18.6178 0.139914 20.9679 1.06313C22.7104 1.74764 23.9799 2.50425 25.1873 3.63317C25.598 4.01714 25.8033 4.20913 25.9342 4.51002C26.0408 4.75488 26.0874 5.09575 26.0506 5.36025C26.0054 5.68525 25.8347 5.9658 25.4931 6.52688C24.8626 7.56284 24.5473 8.08083 24.2088 8.28216C23.8602 8.48949 23.6154 8.5415 23.2126 8.49375C22.8215 8.44739 22.2295 8.03763 21.0454 7.21811C20.3421 6.73134 19.6241 6.31929 18.9995 6.07395C17.4734 5.47444 15.823 5.26056 14.1945 5.45124C12.566 5.64193 11.0096 6.2313 9.66326 7.16715C8.31692 8.10299 7.22216 9.35643 6.47596 10.8164C5.72975 12.2764 5.35513 13.8979 5.38527 15.5373C5.41542 17.1767 5.8494 18.7833 6.64878 20.2149C7.44815 21.6465 8.58825 22.8588 9.96808 23.7445C10.289 23.9506 10.6207 24.1374 10.9612 24.3046C12.4667 25.0435 13.2195 25.4129 13.452 25.7393C13.6691 26.0441 13.7233 26.199 13.7435 26.5727C13.7652 26.9728 13.4952 27.5439 12.9553 28.6861Z" fill="#FFF963"/>
<path d="M4.09089 37.4681C3.65486 38.1622 3.43685 38.5092 3.41451 38.9184C3.40197 39.1481 3.45778 39.4468 3.55242 39.6564C3.72103 40.0299 4.00497 40.2415 4.57286 40.6647C5.91169 41.6623 7.40822 42.4378 9.00531 42.9564C11.2812 43.6954 13.6982 43.8922 16.0636 43.5312C18.4291 43.1702 20.6774 42.2614 22.6292 40.8772C24.581 39.493 26.1822 37.6717 27.3052 35.5588C28.4282 33.4459 29.0418 31.0997 29.097 28.7075C29.1523 26.3154 28.6477 23.9434 27.6235 21.7809C26.5992 19.6183 25.0838 17.7251 23.1979 16.2523C21.9011 15.2394 20.9134 14.3418 19.6599 13.7271C19.1351 13.4698 18.8728 13.3411 18.4395 13.3757C18.2232 13.393 17.8931 13.5043 17.7105 13.6214C17.3447 13.856 17.1698 14.2046 16.8202 14.9018C16.2277 16.0833 15.9314 16.6741 15.9474 17.0816C15.9594 17.3882 15.9932 17.5106 16.1405 17.7798C16.3362 18.1376 17.0321 18.5799 18.4238 19.4646C18.9612 19.8062 19.4619 20.1654 19.8842 20.4952C21.1088 21.4516 22.0929 22.681 22.758 24.0853C23.4231 25.4895 23.7508 27.0298 23.7149 28.5832C23.679 30.1366 23.2806 31.6601 22.5513 33.0322C21.8221 34.4043 20.7823 35.5869 19.5149 36.4858C18.2474 37.3847 16.7874 37.9748 15.2514 38.2093C13.7154 38.4437 12.1458 38.3159 10.6679 37.836C10.0231 37.6266 9.23507 37.2035 8.45968 36.7023C7.27039 35.9336 6.67574 35.5492 6.23957 35.5334C5.93454 35.5224 5.73397 35.5669 5.46213 35.7057C5.07342 35.9042 4.74591 36.4255 4.09089 37.4681Z" fill="#FFF963"/>
</svg>
