<svg width="20" height="20" viewBox="0 0 20 20" fill="none" xmlns="http://www.w3.org/2000/svg">
<path d="M12.0239 15.6864C11.8655 15.6864 11.7072 15.628 11.5821 15.503C11.3405 15.2613 11.3405 14.8613 11.5821 14.6196L16.1993 10.0025L11.5821 5.38537C11.3405 5.14368 11.3405 4.74364 11.5821 4.50195C11.8238 4.26026 12.2239 4.26026 12.4656 4.50195L17.5244 9.56078C17.7661 9.80247 17.7661 10.2025 17.5244 10.4442L12.4656 15.503C12.3406 15.628 12.1822 15.6864 12.0239 15.6864Z" fill="#FFF963"/>
<path d="M16.9425 10.6254H2.91608C2.57438 10.6254 2.29102 10.342 2.29102 10.0003C2.29102 9.65861 2.57438 9.37524 2.91608 9.37524H16.9425C17.2842 9.37524 17.5675 9.65861 17.5675 10.0003C17.5675 10.342 17.2842 10.6254 16.9425 10.6254Z" fill="#FFF963"/>
</svg>
