<svg width="22" height="20" viewBox="0 0 22 20" fill="none" xmlns="http://www.w3.org/2000/svg">
<path d="M20.7566 15.5088C21.2748 14.4339 21.5291 13.2509 21.4983 12.058C21.4675 10.8652 21.1525 9.69686 20.5795 8.65017C20.0066 7.60347 19.1921 6.7086 18.2038 6.0399C17.2155 5.37119 16.0819 4.94795 14.8972 4.80533C14.503 3.88879 13.9299 3.06013 13.2115 2.36785C12.493 1.67557 11.6436 1.1336 10.7131 0.773665C9.78259 0.413735 8.7896 0.243083 7.7923 0.271702C6.795 0.300322 5.81344 0.527637 4.90509 0.940338C3.99673 1.35304 3.17985 1.94283 2.50228 2.67517C1.82471 3.40751 1.30007 4.26768 0.959077 5.20531C0.618085 6.14294 0.467599 7.13918 0.516431 8.1357C0.565263 9.13221 0.812431 10.109 1.24346 11.0088L0.561899 13.3253C0.485694 13.5839 0.480599 13.8583 0.547149 14.1196C0.613698 14.3808 0.749433 14.6193 0.940072 14.81C1.13071 15.0006 1.36921 15.1363 1.63047 15.2029C1.89173 15.2694 2.1661 15.2643 2.42471 15.1881L4.74127 14.5066C5.48512 14.864 6.28261 15.0967 7.1019 15.1956C7.49994 16.1283 8.08297 16.9705 8.81575 17.6714C9.54852 18.3723 10.4158 18.9174 11.3652 19.2736C12.3146 19.6298 13.3264 19.7898 14.3393 19.7439C15.3523 19.698 16.3455 19.4472 17.2588 19.0066L19.5753 19.6881C19.8339 19.7643 20.1081 19.7693 20.3692 19.7028C20.6304 19.6363 20.8688 19.5007 21.0594 19.3101C21.25 19.1196 21.3858 18.8813 21.4524 18.6202C21.5191 18.3591 21.5141 18.0848 21.4381 17.8263L20.7566 15.5088ZM4.81252 12.9531C4.74085 12.9533 4.66955 12.9634 4.60065 12.9831L2.00002 13.75L2.76596 11.1475C2.82044 10.9595 2.79924 10.7576 2.7069 10.585C2.02844 9.31618 1.82853 7.84579 2.14362 6.44189C2.4587 5.03798 3.2678 3.79404 4.42341 2.93684C5.57902 2.07964 7.0042 1.66625 8.43914 1.77205C9.87407 1.87784 11.2232 2.49576 12.2406 3.51316C13.258 4.53057 13.876 5.87971 13.9817 7.31465C14.0875 8.74959 13.6742 10.1748 12.8169 11.3304C11.9597 12.486 10.7158 13.2951 9.3119 13.6102C7.90799 13.9253 6.4376 13.7253 5.16877 13.0469C5.05966 12.9865 4.93722 12.9543 4.81252 12.9531ZM19.2303 15.6466L20 18.25L17.3975 17.4841C17.2095 17.4296 17.0076 17.4508 16.835 17.5431C15.4539 18.2806 13.8394 18.4495 12.3356 18.0138C10.8318 17.578 9.55764 16.5722 8.78471 15.2106C9.81163 15.1035 10.8053 14.7852 11.7034 14.2759C12.6016 13.7665 13.3847 13.0771 14.0038 12.2508C14.6229 11.4245 15.0645 10.4792 15.301 9.47411C15.5375 8.46907 15.5638 7.42599 15.3781 6.41033C16.2729 6.62123 17.1072 7.03491 17.8167 7.61942C18.5262 8.20394 19.0919 8.94366 19.4701 9.7815C19.8484 10.6193 20.029 11.5329 19.9982 12.4516C19.9673 13.3704 19.7258 14.2697 19.2922 15.0803C19.1989 15.254 19.1776 15.4574 19.2332 15.6466H19.2303Z" fill="#C7C7C7"/>
</svg>
