<svg width="4" height="18" viewBox="0 0 4 18" fill="none" xmlns="http://www.w3.org/2000/svg">
<path d="M2 4C1.46957 4 0.960859 3.78929 0.585787 3.41421C0.210714 3.03914 -1.10609e-07 2.53043 -8.74228e-08 2C-6.42368e-08 1.46957 0.210714 0.960859 0.585787 0.585786C0.96086 0.210713 1.46957 -1.10609e-07 2 -8.74228e-08C2.53043 -6.42368e-08 3.03914 0.210714 3.41421 0.585786C3.78929 0.960859 4 1.46957 4 2C4 2.53043 3.78929 3.03914 3.41421 3.41421C3.03914 3.78929 2.53043 4 2 4ZM2 11C1.46957 11 0.960859 10.7893 0.585786 10.4142C0.210714 10.0391 -4.16588e-07 9.53043 -3.93402e-07 9C-3.70217e-07 8.46957 0.210714 7.96086 0.585786 7.58579C0.960859 7.21071 1.46957 7 2 7C2.53043 7 3.03914 7.21071 3.41421 7.58579C3.78929 7.96086 4 8.46957 4 9C4 9.53043 3.78929 10.0391 3.41421 10.4142C3.03914 10.7893 2.53043 11 2 11ZM2 18C1.46957 18 0.960859 17.7893 0.585786 17.4142C0.210713 17.0391 -7.22568e-07 16.5304 -6.99382e-07 16C-6.76196e-07 15.4696 0.210713 14.9609 0.585786 14.5858C0.960859 14.2107 1.46957 14 2 14C2.53043 14 3.03914 14.2107 3.41421 14.5858C3.78929 14.9609 4 15.4696 4 16C4 16.5304 3.78929 17.0391 3.41421 17.4142C3.03914 17.7893 2.53043 18 2 18Z" fill="#C7C7C7"/>
</svg>
