<svg width="20" height="3" viewBox="0 0 20 3" fill="none" xmlns="http://www.w3.org/2000/svg">
<path d="M11.5 1.5C11.5 1.79667 11.412 2.08668 11.2472 2.33335C11.0824 2.58003 10.8481 2.77229 10.574 2.88582C10.2999 2.99935 9.99834 3.02906 9.70737 2.97118C9.41639 2.9133 9.14912 2.77044 8.93934 2.56066C8.72956 2.35088 8.5867 2.08361 8.52882 1.79263C8.47095 1.50166 8.50065 1.20006 8.61418 0.925975C8.72771 0.651886 8.91997 0.417617 9.16665 0.252795C9.41332 0.0879731 9.70333 0 10 0C10.3978 0 10.7794 0.158035 11.0607 0.43934C11.342 0.720644 11.5 1.10218 11.5 1.5ZM18.5 0C18.2033 0 17.9133 0.0879731 17.6666 0.252795C17.42 0.417617 17.2277 0.651886 17.1142 0.925975C17.0007 1.20006 16.9709 1.50166 17.0288 1.79263C17.0867 2.08361 17.2296 2.35088 17.4393 2.56066C17.6491 2.77044 17.9164 2.9133 18.2074 2.97118C18.4983 3.02906 18.7999 2.99935 19.074 2.88582C19.3481 2.77229 19.5824 2.58003 19.7472 2.33335C19.912 2.08668 20 1.79667 20 1.5C20 1.10218 19.842 0.720644 19.5607 0.43934C19.2794 0.158035 18.8978 0 18.5 0ZM1.5 0C1.20333 0 0.913319 0.0879731 0.666645 0.252795C0.419972 0.417617 0.227713 0.651886 0.114181 0.925975C0.000649929 1.20006 -0.0290551 1.50166 0.0288228 1.79263C0.0867006 2.08361 0.229562 2.35088 0.43934 2.56066C0.649119 2.77044 0.916394 2.9133 1.20737 2.97118C1.49834 3.02906 1.79994 2.99935 2.07403 2.88582C2.34811 2.77229 2.58238 2.58003 2.74721 2.33335C2.91203 2.08668 3 1.79667 3 1.5C3 1.10218 2.84197 0.720644 2.56066 0.43934C2.27936 0.158035 1.89783 0 1.5 0Z" fill="#B9B9B9"/>
</svg>
