<svg width="20" height="20" viewBox="0 0 20 20" fill="none" xmlns="http://www.w3.org/2000/svg">
<path d="M4.36521 18.7158C5.46385 18.7158 7.70994 17.609 9.36198 16.429C15.0341 16.5836 19.2903 13.3284 19.2903 9.06408C19.2903 4.97066 15.1888 1.66663 10.0618 1.66663C4.93488 1.66663 0.833313 4.97066 0.833313 9.06408C0.833313 11.7334 2.5423 14.1015 5.11391 15.2897C4.7477 15.9977 4.0641 16.958 3.6979 17.4381C3.26658 18.0078 3.527 18.7158 4.36521 18.7158ZM5.2197 17.3649C5.1546 17.3893 5.13019 17.3405 5.17088 17.2835C5.6266 16.722 6.27765 15.8756 6.55434 15.3548C6.7822 14.9316 6.72524 14.5573 6.2044 14.3131C3.64907 13.125 2.18422 11.2288 2.18422 9.06408C2.18422 5.7275 5.67544 3.0094 10.0618 3.0094C14.4564 3.0094 17.9476 5.7275 17.9476 9.06408C17.9476 12.3925 14.4564 15.1106 10.0618 15.1106C9.89906 15.1106 9.64681 15.1025 9.32123 15.0944C8.97947 15.0944 8.71905 15.2001 8.40981 15.4443C7.40883 16.1685 5.96026 17.0638 5.2197 17.3649Z" fill="#B1B1B1"/>
</svg>
