<svg width="18" height="16" viewBox="0 0 18 16" fill="none" xmlns="http://www.w3.org/2000/svg">
<path d="M17.5671 7.3083L11.3171 1.0583C11.2298 0.970845 11.1184 0.911256 10.9972 0.887075C10.876 0.862893 10.7503 0.875205 10.6361 0.922454C10.5218 0.969702 10.4242 1.04976 10.3555 1.15252C10.2867 1.25527 10.25 1.37609 10.25 1.49971V4.65205C8.22339 4.82549 5.98511 5.81768 4.1437 7.3794C1.92651 9.26065 0.546046 11.6849 0.256203 14.2052C0.233552 14.4011 0.273282 14.5992 0.369737 14.7713C0.466192 14.9433 0.614458 15.0806 0.793434 15.1635C0.972411 15.2464 1.17298 15.2707 1.36659 15.2331C1.56021 15.1954 1.73701 15.0976 1.87183 14.9536C2.7312 14.0388 5.78901 11.1458 10.25 10.8911V13.9997C10.25 14.1233 10.2867 14.2442 10.3555 14.3469C10.4242 14.4497 10.5218 14.5297 10.6361 14.577C10.7503 14.6242 10.876 14.6365 10.9972 14.6123C11.1184 14.5882 11.2298 14.5286 11.3171 14.4411L17.5671 8.19112C17.684 8.07395 17.7497 7.91521 17.7497 7.74971C17.7497 7.58421 17.684 7.42547 17.5671 7.3083ZM11.5 12.4911V10.2497C11.5 10.084 11.4341 9.92498 11.3169 9.80777C11.1997 9.69056 11.0407 9.62471 10.875 9.62471C8.6812 9.62471 6.54448 10.1974 4.52417 11.3278C3.49522 11.9061 2.53652 12.6014 1.66714 13.3997C2.12026 11.5372 3.26245 9.76612 4.9523 8.33252C6.76636 6.79424 8.98042 5.87471 10.875 5.87471C11.0407 5.87471 11.1997 5.80886 11.3169 5.69165C11.4341 5.57444 11.5 5.41547 11.5 5.24971V3.00909L16.2414 7.74971L11.5 12.4911Z" fill="#B1B1B1"/>
</svg>
