<svg width="95" height="84" viewBox="0 0 95 84" fill="none" xmlns="http://www.w3.org/2000/svg">
<g id="Group">
<path id="Vector" d="M52.2909 5.39237C52.2909 5.39237 44.4565 22.9764 23.7381 18.9482C3.01964 14.92 -9.46315 43.26 10.1243 53.5934C29.7118 63.9268 16.1372 75.7974 29.2007 81.8609C44.0484 88.7522 49.5851 65.7083 60.5234 67.8486C84.6648 72.5723 99.5981 64.4711 92.995 53.5692C81.4041 34.4324 72.988 35.1369 76.4081 22.7789C79.8283 10.4208 60.5134 -8.55093 52.2909 5.39237Z" fill="#757C89"/>
<g id="Group_2">
<path id="Vector_2" d="M48.5092 45.5254C46.6887 49.0142 46.2294 50.8685 40.7073 54.3303C40.6644 54.3583 40.6323 54.4 40.6161 54.4485C39.7339 57.1836 38.2405 59.6818 36.2492 61.7538C36.2223 61.7815 36.2035 61.8158 36.1946 61.8532C36.1856 61.8907 36.187 61.9299 36.1985 61.9666C36.8166 64.0235 37.4855 67.7319 35.6243 70.7716C32.8886 75.2468 30.8624 72.5447 31.2844 71.5315C31.6457 70.6634 34.7327 68.7991 34.0201 64.1417C34.0141 64.1044 33.9986 64.0693 33.9751 64.0398C33.9516 64.0102 33.9209 63.9872 33.886 63.973C33.8511 63.9587 33.813 63.9537 33.7756 63.9584C33.7381 63.9631 33.7025 63.9774 33.6722 63.9998C31.4346 65.6238 28.8665 66.7344 26.1507 67.2524C26.1206 67.2574 26.0918 67.2687 26.0663 67.2856C26.0409 67.3025 26.0193 67.3246 26.003 67.3505C25.9867 67.3763 25.9761 67.4053 25.9719 67.4356C25.9676 67.4659 25.9699 67.4967 25.9784 67.526C26.6708 70.005 26.9984 73.8791 24.1074 77.4421C22.5639 79.2997 20.5172 76.5842 22.5639 74.7336C23.8338 73.5886 23.7358 70.2957 23.1414 67.7592C23.1301 67.71 23.102 67.6662 23.0619 67.6354C23.0219 67.6046 22.9724 67.5887 22.9219 67.5904C22.8037 67.5937 22.682 67.5937 22.5639 67.5937C18.3864 67.6 14.325 66.2195 11.0165 63.6688C10.9863 63.6452 10.9504 63.6298 10.9124 63.6243C10.8744 63.6187 10.8356 63.6231 10.7998 63.6371C10.764 63.651 10.7325 63.6741 10.7083 63.7039C10.6841 63.7338 10.6681 63.7694 10.6619 63.8073C9.86818 69.0489 13.0195 70.8627 13.4685 72.207C13.9684 73.7099 12.82 75.0473 11.4049 74.6691C11.3742 74.66 11.3456 74.645 11.3205 74.6251C6.70696 71.1599 7.10885 63.8985 7.61546 60.4029C7.62009 60.3743 7.61857 60.3451 7.611 60.3171C7.60342 60.2891 7.58996 60.2631 7.57153 60.2408C4.99154 56.9207 3.59478 52.8339 3.60306 48.6292C3.60306 40.9186 8.20649 34.2819 14.8161 31.32C14.8166 31.32 14.817 31.3199 14.8174 31.3198C14.8178 31.3196 14.8182 31.3193 14.8185 31.319C14.8188 31.3187 14.8191 31.3183 14.8193 31.3179C14.8194 31.3175 14.8195 31.3171 14.8195 31.3166C15.8361 30.0296 17.0756 28.2094 17.2648 26.9328C17.271 26.8895 17.29 26.8491 17.3193 26.8167C17.3487 26.7843 17.387 26.7614 17.4294 26.7508C17.4718 26.7403 17.5164 26.7427 17.5575 26.7576C17.5985 26.7726 17.6342 26.7995 17.6599 26.8348C18.1463 27.49 18.8995 28.7397 18.734 30.0568C18.7272 30.1007 18.7239 30.1446 18.7171 30.1885C18.7036 30.2629 18.6867 30.3338 18.6698 30.4081C18.6529 30.4655 18.6394 30.5229 18.6191 30.5804C18.8553 30.3833 19.0807 30.1735 19.2943 29.9521C19.7907 29.4422 20.4189 28.6755 20.6892 27.8548C20.7019 27.811 20.728 27.7723 20.7637 27.7439C20.7994 27.7155 20.843 27.6989 20.8886 27.6963C20.9341 27.6937 20.9793 27.7054 21.018 27.7295C21.0567 27.7537 21.0869 27.7893 21.1045 27.8314C21.28 28.2637 21.4862 28.8682 21.5571 29.4863C21.5632 29.5417 21.5898 29.5929 21.6316 29.6297C21.6735 29.6666 21.7276 29.6865 21.7833 29.6855C22.0434 29.6754 22.3035 29.6687 22.5636 29.6687C33.0369 29.6687 41.5277 38.1595 41.5277 48.6295C41.5277 48.8693 41.5243 49.1057 41.5142 49.3421C41.5127 49.3782 41.52 49.4141 41.5355 49.4467C41.551 49.4793 41.5743 49.5077 41.6032 49.5293C41.6322 49.5509 41.6659 49.5652 41.7016 49.5708C41.7373 49.5764 41.7738 49.5733 41.808 49.5616C42.9361 49.1665 44.358 48.214 45.2158 45.9478C46.8201 41.726 46.989 40.544 46.4824 37.2509C45.9758 33.9579 48.4246 34.127 48.931 35.2245C49.4373 36.322 50.5354 41.6414 48.5092 45.5254Z" fill="#D4E5FF"/>
<path id="Vector_3" d="M15.1569 50.2926C15.0923 50.2925 15.0295 50.2711 14.9784 50.2316C14.9273 50.1921 14.8907 50.1368 14.8742 50.0743C14.7469 49.5181 14.7195 48.9437 14.7935 48.3778C14.9598 47.1481 15.629 46.2441 16.7289 45.7637C17.4476 45.4497 18.127 45.4316 18.7482 45.7101C20.0213 46.2807 20.5633 47.8986 20.5858 47.9672C20.6076 48.0402 20.6 48.1189 20.5646 48.1864C20.5292 48.2539 20.4689 48.305 20.3965 48.3287C20.3241 48.3524 20.2452 48.3469 20.1768 48.3134C20.1083 48.2799 20.0557 48.2209 20.03 48.1492C20.0254 48.1351 19.5433 46.7058 18.5072 46.243C18.0433 46.0359 17.5238 46.0549 16.9632 46.2998C16.0531 46.6976 15.519 47.4172 15.3758 48.4388C15.3104 48.9347 15.3323 49.4382 15.4405 49.9265C15.46 50.0016 15.4489 50.0814 15.4096 50.1483C15.3704 50.2152 15.3061 50.2638 15.2311 50.2834C15.2068 50.2895 15.1819 50.2926 15.1569 50.2926Z" fill="#666666"/>
<path id="Vector_4" d="M23.9747 47.614C23.9134 47.6139 23.8536 47.5946 23.8039 47.5588C23.7542 47.523 23.7169 47.4725 23.6975 47.4144C23.5342 46.8699 23.4696 46.3007 23.5068 45.7335C23.5931 44.5006 24.2024 43.5589 25.2689 43.01C25.9672 42.6508 26.6449 42.5888 27.2838 42.827C28.5884 43.3125 29.2332 44.8815 29.26 44.9481C29.2881 45.0198 29.2867 45.0998 29.2562 45.1706C29.2257 45.2414 29.1684 45.2973 29.0969 45.3261C29.0254 45.3549 28.9454 45.3543 28.8744 45.3244C28.8033 45.2946 28.7469 45.2379 28.7174 45.1667C28.7115 45.153 28.1394 43.768 27.0775 43.3744C26.6 43.1973 26.0816 43.2497 25.5367 43.5302C24.6544 43.9842 24.1683 44.7332 24.0917 45.7568C24.0587 46.2533 24.1131 46.7517 24.2525 47.2293C24.267 47.2732 24.2709 47.32 24.2638 47.3658C24.2568 47.4115 24.239 47.455 24.2118 47.4925C24.1847 47.53 24.1491 47.5606 24.1079 47.5817C24.0667 47.6029 24.0211 47.6139 23.9748 47.614H23.9747Z" fill="#666666"/>
<path id="Vector_5" d="M23.2299 53.7335C21.2391 53.7335 19.7212 52.4084 19.6452 52.3412C19.6164 52.3157 19.593 52.2847 19.5762 52.2502C19.5595 52.2156 19.5497 52.1781 19.5474 52.1398C19.5451 52.1014 19.5504 52.063 19.563 52.0267C19.5756 51.9904 19.5952 51.9569 19.6207 51.9282C19.6462 51.8995 19.6771 51.8761 19.7116 51.8593C19.7462 51.8425 19.7837 51.8327 19.8221 51.8304C19.8604 51.8281 19.8988 51.8334 19.9351 51.846C19.9714 51.8586 20.0049 51.8782 20.0336 51.9037C20.0536 51.9212 22.0581 53.6635 24.3151 52.9908C26.5615 52.3214 27.1775 49.4691 27.1835 49.4404C27.1999 49.3652 27.2453 49.2995 27.3099 49.2575C27.3744 49.2155 27.4529 49.2007 27.5283 49.2162C27.6037 49.2317 27.67 49.2764 27.7127 49.3404C27.7554 49.4045 27.7711 49.4828 27.7565 49.5584C27.6174 50.1492 27.3996 50.7186 27.1088 51.2514C26.4666 52.4354 25.5586 53.2308 24.4822 53.5515C24.0758 53.6726 23.654 53.7339 23.2299 53.7335Z" fill="#666666"/>
<path id="Vector_6" d="M86.2829 40.7143C86.2578 41.3494 86.1932 41.9823 86.0895 42.6094C84.6793 51.2356 76.5472 57.0828 67.9209 55.6725C59.298 54.2629 53.4475 46.1301 54.8579 37.5038C54.9478 36.9539 55.0666 36.4157 55.2071 35.8909C48.8094 31.5461 49.1831 23.1679 50.4095 22.239C51.6481 21.2984 53.0004 22.091 52.8591 24.6928C52.7137 28.4711 55.0399 31.5958 56.3301 32.9568C59.3508 26.9346 66.0269 23.2964 73.0265 24.4406C79.8195 25.551 84.887 30.8318 86.0474 37.2362C87.3137 36.7759 89.5499 35.4474 91.3616 31.6711C91.6146 30.9185 91.6845 30.3653 91.6979 30.0321C91.707 29.7208 91.8286 29.4234 92.0401 29.1948C92.4364 28.7805 93.138 28.3407 94.044 29.0159C94.2501 29.17 94.4162 29.3712 94.5284 29.6027C94.6406 29.8343 94.6957 30.0893 94.6889 30.3465C94.6322 32.3874 92.9991 37.353 86.2829 40.7143Z" fill="#D4E5FF"/>
<path id="Vector_7" d="M76.8722 43.5119C76.4728 45.9552 73.1127 47.4387 69.3695 46.8268C65.623 46.2144 62.9101 43.738 63.3095 41.2949C63.3855 40.8399 63.5633 40.408 63.8296 40.0313C63.9024 39.9293 64.0115 39.8591 64.1345 39.8352C64.2574 39.8113 64.3849 39.8354 64.4906 39.9026C65.8318 40.7423 67.9545 41.4827 70.4036 41.8831C72.6576 42.2516 74.7435 42.2571 76.2615 41.9691C76.3851 41.9454 76.513 41.9702 76.6189 42.0383C76.7247 42.1064 76.8003 42.2126 76.83 42.3349C76.9214 42.7206 76.9357 43.1206 76.8722 43.5119Z" fill="#666666"/>
<g id="Group_3">
<path id="Vector_8" d="M69.7695 38.6642C69.727 38.6643 69.6851 38.6551 69.6465 38.6373C69.608 38.6196 69.5738 38.5936 69.5463 38.5613C69.5188 38.529 69.4987 38.4911 69.4873 38.4502C69.4759 38.4093 69.4736 38.3664 69.4804 38.3245C69.5786 37.7239 69.4341 37.1089 69.0789 36.6148C68.7236 36.1207 68.1866 35.788 67.586 35.6898C66.9854 35.5916 66.3704 35.7361 65.8763 36.0913C65.3822 36.4466 65.0495 36.9836 64.9513 37.5842C64.9388 37.6608 64.8963 37.7292 64.8334 37.7745C64.7704 37.8198 64.692 37.8382 64.6154 37.8257C64.5388 37.8131 64.4704 37.7707 64.4251 37.7077C64.3798 37.6448 64.3614 37.5664 64.374 37.4898C64.4972 36.7361 64.9147 36.0622 65.5348 35.6163C66.1549 35.1705 66.9267 34.9892 67.6804 35.1124C68.4341 35.2356 69.108 35.6532 69.5539 36.2733C69.9997 36.8934 70.1809 37.6652 70.0577 38.4189C70.0466 38.4873 70.0114 38.5496 69.9586 38.5945C69.9058 38.6394 69.8388 38.6641 69.7695 38.6642Z" fill="#666666"/>
<path id="Vector_9" d="M76.7861 39.8114C76.7437 39.8113 76.7018 39.8021 76.6633 39.7843C76.6248 39.7665 76.5907 39.7405 76.5632 39.7082C76.5357 39.6759 76.5156 39.638 76.5042 39.5972C76.4928 39.5563 76.4904 39.5135 76.4971 39.4716C76.5928 38.8721 76.4471 38.2591 76.0918 37.7668C75.7365 37.2746 75.2005 36.9432 74.6014 36.8452C74.0022 36.7473 73.3887 36.8908 72.8951 37.2443C72.4015 37.5978 72.0682 38.1325 71.968 38.7313C71.962 38.7693 71.9484 38.8057 71.9282 38.8385C71.908 38.8713 71.8816 38.8997 71.8504 38.9223C71.8191 38.9448 71.7838 38.9609 71.7463 38.9698C71.7089 38.9786 71.67 38.9799 71.632 38.9737C71.5941 38.9675 71.5577 38.9539 71.525 38.9336C71.4923 38.9133 71.4639 38.8867 71.4415 38.8554C71.419 38.8241 71.403 38.7887 71.3943 38.7512C71.3856 38.7138 71.3844 38.6749 71.3907 38.6369C71.516 37.8851 71.9342 37.2137 72.5537 36.7697C73.1732 36.3257 73.9435 36.1455 74.6957 36.2684C75.4479 36.3914 76.1206 36.8075 76.5665 37.4257C77.0124 38.0438 77.1951 38.8135 77.0745 39.566C77.0633 39.6345 77.0281 39.6967 76.9753 39.7417C76.9225 39.7866 76.8555 39.8113 76.7861 39.8114Z" fill="#666666"/>
</g>
</g>
</g>
</svg>
