<svg width="13" height="14" viewBox="0 0 13 14" fill="none" xmlns="http://www.w3.org/2000/svg">
<path id="Star 1" d="M5.53268 1.47516C5.83204 0.553852 7.13545 0.553852 7.4348 1.47516L8.27985 4.07597C8.41373 4.488 8.79768 4.76696 9.23091 4.76696H11.9656C12.9343 4.76696 13.3371 6.00657 12.5534 6.57598L10.341 8.18337C9.99048 8.43801 9.84382 8.88938 9.9777 9.3014L10.8228 11.9022C11.1221 12.8235 10.0676 13.5896 9.28391 13.0202L7.07153 11.4129C6.72104 11.1582 6.24644 11.1582 5.89596 11.4129L3.68357 13.0202C2.89986 13.5896 1.84538 12.8235 2.14473 11.9022L2.98978 9.3014C3.12366 8.88938 2.977 8.43801 2.62651 8.18337L0.414132 6.57598C-0.369582 6.00657 0.0331929 4.76696 1.00192 4.76696H3.73657C4.1698 4.76696 4.55375 4.488 4.68763 4.07598L5.53268 1.47516Z" fill="#F5DE67"/>
</svg>
